<?xml version="1.0" standalone="no"?>
<!DOCTYPE svg PUBLIC "-//W3C//DTD SVG 20010904//EN"
 "http://www.w3.org/TR/2001/REC-SVG-20010904/DTD/svg10.dtd">
<svg version="1.0" xmlns="http://www.w3.org/2000/svg"
 width="1408.000000pt" height="768.000000pt" viewBox="0 0 1408.000000 768.000000"
 preserveAspectRatio="xMidYMid meet">

<g transform="translate(0.000000,768.000000) scale(0.100000,-0.100000)"
fill="#000000" stroke="none">
<path d="M11177 6930 c-43 -24 -45 -36 -3 -20 62 23 123 4 188 -59 24 -22 27
-34 28 -84 0 -68 -16 -103 -74 -160 -100 -98 -192 -126 -501 -152 -81 -7 -219
-32 -253 -46 -13 -5 -63 -14 -110 -19 -48 -5 -98 -12 -112 -14 -14 -3 -47 -10
-75 -16 -27 -6 -63 -13 -80 -16 -97 -19 -331 -156 -410 -240 -64 -69 -107
-129 -121 -166 -3 -10 -10 -18 -15 -18 -5 0 -9 -9 -9 -20 0 -10 -13 -34 -29
-52 -15 -18 -30 -40 -33 -48 -13 -35 -21 50 -11 116 11 79 43 155 99 239 20
31 34 58 31 62 -17 16 -142 -85 -179 -145 -32 -52 -33 -29 -1 30 15 29 64 90
109 134 69 70 96 89 185 132 136 66 197 82 352 89 70 3 124 9 120 13 -16 14
-164 31 -220 26 l-58 -6 65 21 c46 15 93 22 160 23 97 1 101 0 223 -62 21 -11
2 21 -30 52 -50 47 -171 108 -253 129 -143 35 -177 38 -325 34 -161 -4 -287
-24 -375 -58 -30 -11 -64 -23 -75 -26 -11 -3 -42 -16 -70 -28 -27 -13 -85 -40
-127 -59 -90 -40 -142 -75 -216 -141 -28 -26 -52 -42 -52 -37 0 16 176 173
268 238 109 79 292 174 405 212 49 17 85 32 80 35 -20 12 -138 -16 -283 -68
-53 -19 -264 -130 -283 -149 -7 -7 -33 -25 -57 -41 -25 -15 -49 -33 -55 -39
-5 -7 -22 -19 -37 -27 -52 -28 -348 -312 -372 -357 -4 -9 -14 -21 -20 -27 -23
-20 -78 -95 -131 -181 -30 -48 -55 -85 -55 -82 0 13 58 143 106 239 133 266
408 551 668 691 65 36 59 44 -8 12 -16 -8 -33 -14 -39 -14 -16 0 -191 -91
-227 -119 -19 -14 -54 -38 -77 -53 -61 -39 -222 -188 -223 -206 -1 -4 -14 -18
-30 -32 -17 -13 -30 -30 -30 -36 0 -7 -3 -14 -8 -16 -10 -4 -72 -84 -72 -93 0
-3 -7 -13 -15 -22 -8 -8 -13 -18 -10 -23 3 -4 -2 -13 -10 -20 -8 -7 -15 -18
-15 -25 0 -7 -7 -18 -15 -25 -8 -7 -15 -20 -15 -30 0 -10 -7 -23 -15 -30 -8
-7 -15 -21 -15 -32 0 -11 -9 -32 -19 -47 -10 -14 -26 -42 -34 -61 l-15 -35 -1
50 c-2 103 -41 216 -100 294 -59 78 -164 138 -224 129 -18 -2 -14 -8 25 -31
68 -40 137 -148 171 -267 49 -171 48 -159 17 -300 -26 -119 -95 -319 -106
-308 -2 2 5 31 15 63 34 108 52 331 31 380 -7 16 -9 12 -10 -20 -1 -39 -2 -38
-29 37 -44 121 -97 190 -203 258 -109 71 -267 80 -388 22 -72 -34 -170 -119
-170 -146 0 -9 -7 -19 -15 -22 -8 -4 -15 -16 -15 -28 0 -11 -7 -30 -15 -40
-10 -13 -15 -44 -15 -91 0 -64 3 -77 30 -113 36 -51 76 -72 132 -72 60 0 111
36 133 95 25 64 8 135 -33 135 -13 0 -13 -2 1 -18 21 -24 22 -95 2 -112 -8 -7
-15 -18 -15 -25 0 -14 -42 -35 -70 -35 -11 0 -35 14 -54 31 -113 99 5 293 191
315 86 11 213 -47 213 -96 0 -10 5 -20 11 -22 17 -6 14 -137 -4 -170 -20 -40
-100 -113 -207 -189 -76 -54 -106 -78 -159 -126 -25 -24 -49 -43 -53 -43 -5 0
-8 -6 -8 -14 0 -7 -11 -25 -24 -39 -41 -44 -67 -86 -87 -140 l-20 -52 5 50
c16 150 18 217 7 281 -39 227 -164 383 -350 438 -63 18 -71 19 -71 7 0 -5 15
-14 33 -20 57 -20 207 -128 207 -150 0 -5 7 -11 15 -15 8 -3 15 -12 15 -21 0
-8 4 -23 9 -33 16 -29 48 -134 56 -182 6 -43 5 -42 -33 37 -69 139 -141 199
-320 265 -82 30 -95 32 -222 33 l-135 0 -70 -39 c-65 -37 -150 -105 -141 -114
2 -2 22 6 44 17 67 34 186 62 269 63 93 1 174 -20 258 -67 52 -30 145 -106
145 -118 0 -3 17 -31 39 -63 21 -33 41 -76 45 -96 l7 -37 -48 26 c-92 49 -161
66 -270 67 -56 1 -98 4 -94 8 4 5 40 16 81 27 92 23 68 36 -40 21 -177 -23
-406 -118 -500 -209 -21 -20 -47 -43 -57 -52 -22 -20 -73 -79 -73 -86 0 -2 -6
-11 -12 -18 -25 -27 -53 -69 -65 -95 -4 -8 -15 -22 -25 -30 -21 -17 -88 -155
-88 -182 0 -10 -20 -51 -44 -91 -50 -85 -73 -147 -91 -250 l-13 -72 -1 80 c-1
88 27 229 58 300 21 48 66 117 100 153 27 28 22 28 -38 -2 -52 -27 -161 -132
-161 -156 0 -5 -7 -10 -15 -10 -8 0 -15 -7 -15 -15 0 -9 -7 -18 -15 -21 -8 -4
-15 -15 -15 -25 0 -10 -4 -19 -9 -19 -5 0 -11 -8 -15 -17 -3 -10 -17 -36 -30
-58 -14 -22 -25 -49 -26 -60 0 -11 -7 -29 -15 -39 -8 -11 -15 -32 -15 -47 0
-15 -4 -31 -10 -34 -5 -3 -10 -19 -10 -34 0 -16 -7 -45 -15 -65 -10 -25 -17
-91 -22 -217 l-6 -181 -38 128 c-32 107 -40 151 -45 254 -6 108 -4 137 14 210
12 47 42 124 66 173 25 48 43 87 41 87 -10 0 -105 -104 -110 -121 -4 -10 -11
-19 -16 -19 -5 0 -9 -6 -9 -14 0 -7 -7 -19 -15 -26 -8 -7 -15 -23 -15 -35 0
-12 -7 -28 -15 -35 -8 -7 -15 -27 -15 -46 0 -18 -4 -35 -9 -38 -4 -3 -11 -31
-14 -63 -4 -32 -10 -80 -13 -107 -6 -44 3 -142 25 -271 5 -27 8 -51 7 -52 -1
-2 -18 19 -37 45 l-34 47 -3 -29 c-2 -16 1 -39 6 -50 5 -12 15 -52 22 -91 7
-38 14 -81 17 -95 2 -14 -12 8 -32 49 -61 127 -148 212 -257 252 -101 37 -184
19 -265 -57 -57 -54 -56 -69 5 -43 26 12 75 23 108 26 144 13 258 -93 327
-302 22 -64 31 -184 20 -260 l-9 -60 -17 74 c-44 192 -175 321 -325 321 -77 0
-116 -8 -139 -29 -10 -10 -31 -26 -46 -35 -15 -10 -27 -24 -27 -31 0 -7 -5
-15 -11 -17 -6 -2 -11 -33 -12 -75 -1 -77 15 -116 52 -126 24 -6 29 8 6 17
-22 8 -19 72 6 122 36 75 130 104 214 65 75 -35 141 -131 179 -262 18 -62 21
-154 6 -164 -5 -3 -10 -18 -10 -32 0 -22 -4 -19 -26 23 -14 26 -35 57 -47 67
-93 82 -247 52 -310 -61 -18 -31 -16 -72 4 -72 5 0 9 -7 9 -15 0 -10 10 -15
28 -15 l27 0 -24 19 c-19 14 -22 24 -17 45 16 64 102 100 169 72 42 -17 97
-85 97 -119 0 -14 5 -29 10 -32 6 -3 10 -38 10 -76 0 -82 -14 -108 -73 -139
-23 -12 -54 -33 -70 -46 -16 -13 -33 -24 -38 -24 -5 0 -9 -6 -9 -14 0 -7 -7
-19 -15 -26 -8 -7 -15 -21 -15 -31 0 -13 -17 -27 -52 -44 -28 -14 -57 -25 -64
-25 -8 0 -38 -9 -69 -21 -44 -16 -75 -40 -144 -109 -71 -70 -108 -98 -192
-143 -71 -37 -121 -57 -158 -62 -48 -7 -149 -51 -177 -79 -48 -48 -114 -90
-282 -178 -23 -12 -42 -27 -42 -32 0 -24 -189 -131 -218 -124 -35 9 -112 -36
-112 -65 0 -23 -33 -112 -44 -119 -5 -4 -9 -22 -8 -40 2 -30 -2 -35 -40 -55
-68 -34 -204 -93 -216 -93 -6 0 -26 -9 -44 -19 -40 -23 -142 -63 -218 -86
-120 -36 -142 -48 -200 -106 -33 -33 -57 -59 -54 -59 3 0 -13 -16 -36 -35 -23
-19 -61 -54 -85 -77 -24 -24 -76 -72 -116 -108 -39 -36 -83 -76 -98 -90 -14
-14 -56 -51 -94 -83 -66 -58 -83 -91 -52 -103 8 -4 59 10 114 30 266 98 513
146 749 146 l139 0 43 51 c58 69 200 192 289 251 65 42 76 47 90 34 27 -24 92
-46 116 -40 13 3 26 1 29 -5 11 -18 88 -13 123 8 17 11 34 29 38 41 7 21 80
60 113 60 9 0 77 30 150 66 94 47 136 73 144 90 16 35 599 384 641 384 42 0
103 32 158 82 26 24 78 62 118 85 64 39 75 42 116 36 25 -3 56 -1 68 4 12 6
39 18 60 27 26 11 43 27 50 46 14 36 22 37 68 6 66 -45 87 -177 43 -266 -9
-18 -37 -45 -62 -61 -38 -24 -42 -29 -22 -29 13 0 42 11 64 24 83 48 118 169
77 262 l-22 49 61 -60 c33 -33 60 -65 60 -73 0 -7 7 -15 15 -18 9 -4 15 -19
15 -39 0 -18 7 -38 15 -45 21 -17 21 -143 0 -160 -8 -7 -15 -20 -15 -29 0 -21
-33 -53 -80 -76 -40 -21 -27 -30 26 -21 46 9 99 57 132 120 23 45 27 62 26
141 0 102 -18 155 -76 220 -42 48 -12 34 59 -27 84 -72 117 -137 130 -255 3
-29 10 -53 15 -53 5 0 18 20 29 44 31 71 13 187 -43 268 -10 14 -18 29 -18 32
0 11 81 -34 168 -92 85 -57 182 -153 182 -180 0 -5 6 -15 14 -21 23 -19 44
-167 27 -184 -6 -6 -11 -20 -11 -31 0 -23 -49 -61 -92 -71 -33 -8 -93 19 -114
51 -9 12 -14 38 -12 56 2 26 10 37 38 50 l35 18 -35 0 c-44 -1 -70 -20 -70
-51 0 -13 -4 -30 -9 -37 -13 -21 13 -83 48 -114 66 -59 176 -58 259 2 50 36
99 132 108 211 6 51 -4 124 -22 174 -7 18 -6 18 9 6 29 -24 21 22 -9 50 -14
13 -49 51 -78 84 l-51 59 67 -54 c36 -30 113 -96 170 -146 161 -142 290 -218
446 -263 147 -43 287 -32 382 29 77 50 98 115 61 197 -21 45 -49 68 -96 77
-37 7 -69 -9 -45 -23 67 -41 79 -56 80 -97 0 -101 -142 -131 -315 -67 -141 53
-232 119 -385 278 l-65 68 45 -28 c83 -50 230 -115 293 -130 76 -18 192 -20
163 -3 -11 6 -38 15 -60 20 -52 12 -229 96 -281 134 -22 16 -61 51 -85 78
l-45 48 65 -36 c260 -147 416 -196 625 -196 252 0 471 92 633 265 l70 75 28
-23 29 -22 -19 30 c-33 51 -45 78 -39 88 3 6 1 7 -5 3 -10 -6 -52 43 -52 62 0
5 -11 17 -25 26 -14 9 -25 23 -25 31 0 8 -4 15 -9 15 -5 0 -36 26 -68 58 -33
31 -98 88 -146 127 -68 55 -83 71 -69 77 12 5 8 7 -14 7 -16 1 -52 15 -80 33
-93 59 -277 140 -383 167 -58 15 -106 32 -106 37 0 5 -4 14 -8 21 -4 7 -1 10
10 8 10 -2 21 -4 25 -4 4 -1 16 -10 27 -22 12 -13 21 -17 26 -10 3 6 1 11 -6
11 -7 0 -10 2 -8 5 3 2 33 0 67 -6 44 -8 66 -17 73 -30 5 -11 14 -17 20 -14 5
4 9 0 9 -7 0 -11 2 -11 9 0 7 11 11 11 24 -2 8 -9 22 -13 30 -10 8 3 23 -6 35
-20 19 -25 40 -37 27 -16 -12 20 15 9 44 -17 52 -48 59 -53 63 -42 2 6 24 -1
51 -16 27 -15 44 -31 41 -37 -4 -7 -2 -8 5 -4 13 8 118 -71 113 -86 -1 -5 1
-7 6 -4 5 3 20 -6 32 -19 13 -14 29 -25 35 -25 6 0 21 -10 32 -22 12 -13 51
-52 87 -88 37 -36 64 -71 61 -78 -3 -7 -1 -10 5 -7 5 3 27 -22 49 -55 22 -33
36 -60 31 -60 -6 0 -10 -4 -10 -10 0 -5 6 -7 14 -4 21 8 96 -119 135 -228 23
-63 34 -231 16 -236 -5 -1 -10 6 -11 17 -5 91 -20 154 -55 234 -42 95 -69 137
-69 105 0 -8 7 -21 15 -28 8 -7 15 -23 15 -35 0 -12 6 -28 14 -34 8 -6 16 -26
19 -44 3 -18 11 -54 17 -82 6 -27 15 -69 20 -93 12 -53 13 -125 1 -137 -5 -6
-11 -35 -15 -65 l-6 -55 25 30 c14 17 35 50 46 75 12 25 34 64 50 86 54 79 73
140 73 239 0 105 -16 159 -74 259 -33 56 -36 66 -18 52 39 -28 48 -29 63 -10
12 17 11 22 -7 41 -19 21 -16 20 33 -6 67 -36 241 -97 332 -117 81 -17 325
-19 430 -3 195 28 310 90 492 261 86 81 93 85 155 97 149 28 306 104 398 194
56 54 129 150 155 204 l20 42 40 -21 c68 -34 119 -102 133 -174 3 -19 10 -37
15 -40 16 -10 10 -160 -8 -196 -30 -61 -33 -68 -33 -84 0 -25 -50 -84 -89
-103 -61 -31 -114 -35 -165 -12 -79 34 -109 119 -66 188 30 51 62 66 123 61
l52 -5 -34 14 c-44 18 -79 10 -135 -33 -32 -24 -46 -42 -46 -58 0 -13 -7 -26
-15 -30 -11 -4 -15 -21 -15 -59 0 -36 5 -59 15 -67 8 -7 15 -17 15 -23 0 -5
12 -21 28 -34 52 -46 83 -58 157 -57 62 0 80 5 156 42 167 80 229 190 265 467
6 48 7 49 16 22 l10 -28 14 27 c13 24 12 30 -3 53 -9 14 15 -3 53 -38 99 -91
195 -150 304 -189 89 -31 102 -33 205 -30 99 3 117 7 175 34 36 17 76 41 90
52 l25 22 -50 -15 c-199 -59 -474 51 -691 277 -93 96 -112 125 -45 65 30 -27
75 -60 100 -74 25 -14 57 -33 71 -42 139 -88 385 -125 525 -79 39 12 39 13
-65 19 -58 4 -123 12 -145 17 -169 45 -367 177 -469 311 -41 54 -45 61 -20 43
145 -111 313 -202 463 -252 147 -48 225 -62 361 -62 155 0 272 31 500 134 107
49 135 64 175 100 50 43 65 77 65 147 0 49 -4 65 -26 90 -25 30 -74 44 -74 21
0 -5 4 -10 9 -10 15 0 24 -41 22 -99 -2 -42 -7 -58 -24 -72 -29 -23 -167 -69
-209 -69 -52 0 -183 28 -266 56 -258 89 -406 204 -640 493 -64 79 -139 169
-166 200 -27 31 -59 67 -70 81 -20 24 -20 24 -1 10 11 -8 34 -26 50 -41 17
-15 42 -33 57 -41 15 -7 67 -52 115 -98 177 -172 281 -242 498 -335 86 -37
211 -60 330 -60 107 1 131 4 220 33 96 30 213 88 202 99 -3 3 -20 0 -39 -6
-115 -36 -169 -44 -266 -37 -53 4 -126 13 -162 21 l-65 14 75 -5 c187 -13 409
35 610 133 261 126 481 345 661 658 34 61 76 128 91 150 47 64 14 52 -59 -22
-60 -60 -82 -74 -187 -121 -121 -53 -168 -68 -309 -96 -123 -25 -132 -18 -17
12 161 43 258 92 393 202 215 173 367 499 367 788 0 78 -15 126 -31 101 -5 -8
-9 -26 -9 -40 0 -30 -27 -89 -41 -89 -5 0 -9 -5 -9 -11 0 -16 -114 -139 -129
-139 -5 0 -11 -7 -14 -14 -3 -8 -21 -23 -39 -32 -18 -9 -49 -30 -69 -46 -20
-16 -60 -38 -90 -49 l-54 -21 20 22 c11 12 35 38 54 58 100 107 198 250 252
368 86 188 93 430 18 610 -47 112 -124 205 -234 283 -57 40 -141 81 -166 81
-18 0 -15 -5 18 -32 41 -34 103 -110 103 -126 0 -5 7 -15 15 -22 8 -7 15 -22
15 -35 0 -12 3 -25 7 -29 8 -8 31 -90 40 -142 3 -19 -2 -44 -11 -62 -9 -17
-16 -43 -16 -57 0 -15 -7 -33 -15 -42 -8 -8 -13 -18 -10 -23 3 -4 -2 -13 -10
-20 -8 -7 -15 -23 -15 -35 0 -12 -7 -28 -15 -35 -8 -7 -15 -20 -15 -29 0 -9
-16 -27 -35 -40 -20 -13 -50 -40 -67 -60 -18 -20 -28 -27 -24 -16 41 101 52
203 32 312 -8 46 -21 97 -30 114 -9 18 -16 39 -16 48 0 13 -2 14 -9 2 -10 -15
-14 0 -26 104 -3 28 -9 65 -12 83 -7 41 -33 43 -33 3 0 -16 -7 -42 -15 -57 -8
-16 -15 -38 -15 -50 0 -11 -7 -36 -16 -54 -25 -49 -133 -151 -184 -172 -25
-11 -54 -23 -65 -28 -80 -36 -194 -69 -273 -80 -105 -13 -128 -10 -51 8 182
42 329 184 329 319 0 31 -2 32 -20 21 -11 -7 -20 -19 -20 -27 0 -8 -19 -33
-43 -56 -32 -30 -64 -48 -125 -69 -76 -26 -91 -27 -200 -23 -64 2 -153 12
-197 21 -163 34 -204 38 -367 40 -153 1 -164 2 -120 13 135 36 232 47 414 47
104 1 188 2 188 3 0 5 -138 42 -180 49 -101 16 -132 18 -282 18 l-156 -1 56
34 c84 51 140 109 178 188 55 113 42 219 -39 303 -46 49 -81 63 -161 68 -59 4
-78 1 -109 -16z m-1456 -341 c-30 -10 -57 -17 -59 -14 -3 2 1 7 9 9 8 2 28 9
44 14 55 19 61 11 6 -9z m-71 -18 c0 -5 -24 -17 -52 -27 -131 -43 -288 -112
-403 -178 -70 -39 -236 -175 -327 -268 -119 -122 -189 -210 -269 -343 -30 -49
-57 -91 -61 -93 -5 -2 -8 -12 -8 -22 0 -10 -16 -60 -36 -112 -52 -136 -61
-168 -110 -410 -50 -251 -80 -346 -119 -382 -25 -23 -26 -31 -2 -27 10 2 9 -6
-8 -39 -9 -17 -22 -30 -30 -30 -8 0 -15 -5 -15 -11 0 -5 4 -7 10 -4 6 3 7 -1
4 -10 -4 -9 -12 -14 -20 -11 -7 3 -15 0 -17 -7 -2 -7 -8 -9 -12 -4 -5 4 6 25
24 47 17 22 27 40 20 40 -8 0 -8 4 -1 13 5 6 15 32 22 57 6 25 22 56 33 69 12
13 16 21 10 17 -17 -9 -17 -9 7 76 11 40 33 138 50 218 65 311 156 543 298
760 155 236 502 496 832 623 68 26 173 66 178 66 1 1 2 -3 2 -8z m1520 -105
c0 -2 -7 -7 -16 -10 -8 -3 -12 -2 -9 4 6 10 25 14 25 6z m-125 -46 c-27 -12
-43 -12 -25 0 8 5 22 9 30 9 10 0 8 -3 -5 -9z m-135 -44 c0 -2 -13 -9 -30 -15
-35 -12 -41 -5 -7 9 25 10 37 12 37 6z m-645 -69 c-151 -79 -248 -150 -373
-275 -111 -111 -119 -111 -35 -1 83 111 240 225 398 291 125 52 128 47 10 -15z
m395 43 c-8 -5 -22 -10 -30 -10 -35 0 -441 -207 -457 -233 -4 -6 0 -8 11 -4
11 4 15 3 11 -4 -4 -6 -14 -8 -22 -5 -33 13 -227 -169 -325 -304 -76 -105
-179 -262 -223 -343 -21 -37 -40 -66 -42 -63 -8 7 79 165 170 311 91 144 246
316 366 404 132 97 334 200 471 240 74 22 91 25 70 11z m-1456 -82 c-28 -33
-48 -47 -58 -41 -5 4 -6 2 -3 -4 4 -6 -11 -27 -33 -47 -22 -20 -40 -34 -40
-30 0 4 -9 -1 -20 -11 -11 -10 -17 -22 -14 -26 3 -5 -2 -9 -10 -9 -9 0 -16 -5
-16 -11 0 -6 -30 -50 -67 -98 -68 -88 -92 -117 -79 -93 4 6 5 12 2 12 -9 0
-68 -91 -63 -96 3 -3 -12 -34 -33 -70 -20 -35 -52 -98 -70 -139 -18 -42 -34
-74 -36 -72 -5 5 63 161 106 245 17 35 30 65 27 68 -4 5 -62 -78 -86 -124 -7
-12 -9 -28 -5 -34 4 -7 3 -8 -5 -4 -8 5 -24 -20 -50 -76 -49 -105 -76 -197
-95 -322 -16 -113 -36 -150 -36 -69 0 190 160 559 319 736 72 80 353 337 368
337 14 0 13 -3 -3 -22z m1306 -126 c-166 -114 -352 -285 -454 -417 -69 -88
-155 -218 -266 -399 -99 -160 -175 -261 -200 -262 -11 -1 -20 3 -20 8 0 6 7 7
16 4 8 -3 12 -2 9 4 -7 12 35 61 46 54 5 -3 7 1 4 8 -3 7 18 43 47 79 29 37
73 99 98 138 227 363 421 615 463 603 4 -1 6 2 5 8 -4 12 103 100 114 94 4 -3
8 -1 8 5 0 11 54 52 73 55 7 1 26 9 42 19 39 21 47 21 15 -1z m-255 -2 c-9
-14 -45 -32 -45 -23 0 7 24 22 48 32 2 0 0 -3 -3 -9z m1375 -16 c68 -8 126
-17 129 -20 7 -7 -24 -5 -167 12 -168 20 -261 14 -402 -25 -244 -68 -351 -128
-594 -336 -32 -27 -119 -119 -192 -203 -74 -84 -134 -150 -134 -146 0 10 204
257 273 330 76 81 259 222 357 277 118 65 249 107 405 131 42 6 178 -2 325
-20z m-2411 -34 c-18 -22 -36 -40 -41 -40 -4 0 -8 -7 -8 -16 0 -8 -18 -33 -39
-54 -51 -51 -143 -174 -171 -230 -12 -24 -38 -67 -57 -94 -19 -28 -41 -65 -48
-83 -8 -18 -19 -33 -25 -33 -12 0 72 163 102 196 10 11 18 24 18 28 0 11 93
145 131 190 47 54 161 176 166 176 2 0 -11 -18 -28 -40z m731 -97 c-69 -70
-126 -129 -127 -132 -2 -2 -5 -2 -8 1 -6 6 238 258 251 258 5 0 -47 -57 -116
-127z m240 52 c-30 -30 -58 -55 -63 -55 -12 0 45 68 58 69 6 1 16 10 23 21 7
11 18 20 24 20 7 0 -12 -25 -42 -55z m-1314 -23 c-18 -16 -18 -16 -6 6 6 13
14 21 18 18 3 -4 -2 -14 -12 -24z m2653 14 c-2 -2 -55 -12 -116 -21 -135 -19
-248 -51 -401 -112 -214 -84 -360 -190 -505 -365 -47 -57 -95 -114 -107 -128
l-21 -25 12 25 c25 51 163 221 232 287 40 37 97 85 128 105 166 110 424 205
624 231 43 6 159 8 154 3z m-3694 -99 c22 -55 18 -58 -11 -7 -14 25 -37 58
-52 74 l-27 29 37 -29 c21 -16 45 -46 53 -67z m714 -16 c-28 -43 -51 -88 -52
-99 0 -11 -4 -19 -7 -17 -19 12 -166 -357 -216 -542 -15 -54 -33 -118 -40
-143 l-14 -45 6 48 c3 27 19 103 35 170 17 67 32 144 33 171 2 37 9 54 25 67
13 11 19 23 15 30 -4 7 -3 9 3 6 6 -4 22 26 39 71 15 42 26 77 24 77 -13 0
118 207 165 263 40 46 32 19 -16 -57z m1521 52 c-29 -49 -52 -79 -133 -179
-49 -60 -115 -149 -148 -199 -67 -102 -77 -104 -22 -6 60 109 113 182 211 295
88 101 116 128 92 89z m1685 -83 l60 -7 -55 -2 c-123 -4 -326 -68 -430 -136
-36 -24 -66 -39 -68 -34 -2 5 -8 9 -14 9 -6 0 -8 -7 -5 -15 4 -8 2 -17 -3 -20
-6 -4 -10 0 -11 7 0 7 -4 3 -9 -9 -13 -31 -30 -29 -22 2 7 26 59 68 74 59 5
-3 8 -2 7 3 -3 20 2 27 11 13 8 -13 11 -12 16 5 6 23 23 36 104 76 48 23 76
31 185 53 31 6 94 5 160 -4z m-3913 -186 c-6 -35 -28 -100 -50 -146 -37 -78
-73 -127 -253 -344 -120 -145 -166 -228 -233 -424 -25 -73 -49 -136 -52 -139
-4 -3 -3 4 0 17 9 26 -2 29 -20 5 -9 -13 -13 -14 -14 -4 0 22 70 221 97 275
44 87 149 237 236 337 205 236 262 341 275 509 l6 85 9 -55 c6 -34 5 -77 -1
-116z m4318 132 c0 -8 -51 -13 -56 -5 -3 5 9 9 25 9 17 0 31 -2 31 -4z m-155
-15 c-6 -5 -48 -21 -95 -36 -47 -15 -107 -39 -133 -52 -26 -13 -52 -21 -58
-18 -5 4 -8 2 -7 -3 4 -12 -119 -106 -151 -117 -16 -5 -20 -10 -11 -15 8 -5 7
-9 -4 -13 -48 -19 -42 9 13 61 47 45 174 132 192 132 5 0 20 7 34 16 13 8 43
16 67 17 24 1 48 7 53 14 6 7 28 14 50 16 22 2 44 4 50 5 6 1 6 -1 0 -7z m55
-1 c0 -5 -9 -10 -20 -10 -11 0 -20 5 -20 10 0 6 9 10 20 10 11 0 20 -4 20 -10z
m155 -16 c-27 -21 -103 -59 -195 -99 -41 -18 -111 -53 -155 -79 -94 -54 -124
-61 -45 -10 71 46 195 109 268 136 31 11 73 32 92 45 38 25 67 31 35 7z
m-3528 -26 c-3 -8 -6 -5 -6 6 -1 11 2 17 5 13 3 -3 4 -12 1 -19z m2343 -87
c-14 -11 -61 -48 -105 -84 -44 -36 -81 -64 -84 -62 -2 2 3 10 10 18 22 22 191
147 198 147 3 0 -5 -9 -19 -19z m0 -24 c0 -2 -10 -12 -22 -23 l-23 -19 19 23
c18 21 26 27 26 19z m125 -47 c-19 -20 -32 -27 -39 -20 -7 7 -6 14 3 23 11 10
13 10 7 0 -4 -7 -2 -13 3 -13 6 0 11 6 11 14 0 8 8 17 18 19 9 3 19 5 21 6 3
0 -8 -13 -24 -29z m1235 7 c0 -2 -10 -12 -22 -23 l-23 -19 19 23 c18 21 26 27
26 19z m531 -68 c-27 -72 -114 -222 -132 -227 -9 -3 -6 4 7 19 29 32 109 186
125 240 7 23 15 37 16 32 2 -6 -5 -35 -16 -64z m-1961 47 c0 -2 -8 -10 -17
-17 -16 -13 -17 -12 -4 4 13 16 21 21 21 13z m1300 -11 c0 -15 -387 -232 -396
-222 -4 4 164 101 271 157 44 23 89 49 100 56 21 15 25 17 25 9z m-1160 -25
c0 -5 -7 -7 -15 -4 -8 4 -12 10 -9 15 6 11 24 2 24 -11z m396 -32 c-6 -5 -7
-8 -1 -8 15 0 -18 -20 -33 -20 -8 0 -12 6 -9 13 2 6 9 11 15 10 5 -1 13 10 17
25 7 25 8 25 15 7 4 -12 3 -23 -4 -27z m972 5 c-13 -14 -36 -35 -53 -46 l-30
-22 29 35 c16 19 37 38 48 42 11 5 16 13 12 19 -5 8 -3 9 5 4 9 -5 6 -14 -11
-32z m-1388 5 c0 -4 -4 -8 -9 -8 -6 0 -12 4 -15 8 -3 5 1 9 9 9 8 0 15 -4 15
-9z m-3536 -46 c-65 -59 -169 -176 -223 -254 -55 -78 -69 -81 -21 -4 17 26 28
51 25 56 -3 5 0 12 6 16 8 5 9 3 4 -7 -5 -8 -4 -11 1 -6 5 5 9 16 9 25 0 9 5
16 12 15 7 -2 10 3 7 10 -2 7 6 19 20 26 16 9 22 19 19 30 -4 9 -3 13 2 9 4
-4 23 10 43 32 19 22 38 37 43 34 5 -3 12 2 15 10 3 9 12 16 19 16 6 0 20 9
30 20 10 11 21 17 24 14 3 -3 -12 -22 -35 -42z m3346 45 c0 -1 -48 -50 -107
-107 -59 -58 -104 -100 -100 -95 9 13 201 205 205 205 1 0 2 -1 2 -3z m-1600
-74 c-11 -60 -72 -264 -77 -259 -1 1 15 74 37 162 22 87 40 161 40 163 0 2 3
2 6 -2 3 -3 1 -32 -6 -64z m1530 42 c-7 -9 -15 -13 -17 -11 -6 6 20 36 26 30
2 -2 -2 -10 -9 -19z m-2022 -60 c-17 -42 -36 -75 -44 -75 -8 0 -14 3 -14 6 0
10 35 69 43 72 4 2 7 7 7 12 0 19 20 60 29 60 5 0 -4 -34 -21 -75z m2652 34
c0 -5 -4 -9 -10 -9 -5 0 -10 7 -10 16 0 8 5 12 10 9 6 -3 10 -10 10 -16z m-36
-40 c-8 -14 -24 -10 -24 6 0 9 6 12 15 9 8 -4 12 -10 9 -15z m-38 -24 c-3 -23
-12 -26 -13 -5 -1 11 2 20 7 20 4 0 7 -7 6 -15z m-4566 -4 c18 -5 2 -9 -55
-14 -51 -4 -111 -18 -165 -38 -47 -17 -93 -33 -102 -36 -10 -3 -18 -9 -18 -14
0 -5 -4 -8 -8 -6 -12 3 -122 -68 -162 -105 -45 -42 -97 -108 -143 -180 -20
-32 -39 -58 -42 -58 -4 0 -3 5 0 10 3 6 2 10 -2 10 -5 0 -14 -15 -21 -33 -6
-18 -19 -42 -27 -52 -19 -26 13 72 44 133 33 65 244 277 322 323 77 46 107 53
34 8 -64 -40 -85 -61 -25 -25 71 42 100 53 185 69 88 16 147 19 185 8z m4150
-5 c0 -3 -4 -8 -10 -11 -5 -3 -10 -1 -10 4 0 6 5 11 10 11 6 0 10 -2 10 -4z
m383 -18 c-9 -36 -24 -50 -39 -38 -9 8 -15 6 -23 -7 -6 -10 -11 -14 -11 -8 0
11 60 75 71 75 4 0 5 -10 2 -22z m-5058 -30 c-22 -18 -55 -48 -73 -66 -35 -37
-106 -168 -98 -181 3 -4 -11 -46 -30 -92 -20 -46 -37 -103 -39 -126 -1 -23 -5
-45 -8 -50 -3 -4 -10 -28 -17 -53 -16 -61 -39 -97 -51 -79 -5 9 -9 -21 -10
-78 -1 -51 -3 -97 -4 -103 -1 -5 -4 -43 -5 -82 -3 -69 -3 -67 -11 42 -9 114 0
246 21 319 5 19 7 38 4 42 -3 5 1 6 9 3 21 -8 30 13 29 59 -2 31 13 70 62 171
73 148 119 214 191 268 61 46 85 51 30 6z m1445 28 c0 -2 -8 -10 -17 -17 -16
-13 -17 -12 -4 4 13 16 21 21 21 13z m1004 -106 c-34 -102 -94 -227 -109 -227
-10 0 -11 6 -4 21 5 12 12 29 15 39 4 9 11 17 16 17 5 0 7 4 4 8 -11 19 87
233 100 219 1 -1 -9 -36 -22 -77z m2513 29 c-8 -21 -13 -26 -15 -15 -2 10 2
23 8 31 18 22 20 18 7 -16z m1413 -4 c-7 -8 -18 -15 -24 -15 -6 0 -2 7 8 15
25 19 32 19 16 0z m100 2 c0 -2 -10 -12 -22 -23 l-23 -19 19 23 c18 21 26 27
26 19z m-1547 -40 c-3 -5 -9 -3 -14 4 -4 7 -5 17 -2 22 3 5 9 3 14 -4 4 -7 5
-17 2 -22z m-53 -17 c-8 -5 -17 -7 -19 -4 -3 3 1 9 9 14 8 5 17 7 19 4 3 -3
-1 -9 -9 -14z m-3571 -32 c-13 -18 -27 -34 -31 -36 -4 -2 -8 -12 -8 -23 0 -10
-4 -19 -9 -19 -5 0 -11 -8 -14 -18 -2 -11 -14 -21 -25 -24 -19 -5 -18 -3 6 31
66 90 135 166 81 89z m3221 18 c0 -3 -4 -8 -10 -11 -5 -3 -10 -1 -10 4 0 6 5
11 10 11 6 0 10 -2 10 -4z m2350 0 c0 -2 -8 -10 -17 -17 -16 -13 -17 -12 -4 4
13 16 21 21 21 13z m-5467 -33 c-10 -16 -30 -45 -43 -65 -14 -21 -28 -38 -33
-38 -4 0 12 29 35 65 24 35 47 65 51 65 5 0 0 -12 -10 -27z m3411 12 c-4 -8
-8 -15 -10 -15 -2 0 -4 7 -4 15 0 8 4 15 10 15 5 0 7 -7 4 -15z m1581 -26
c-56 -57 -195 -135 -195 -109 0 5 8 10 17 10 9 0 13 3 10 7 -4 3 5 12 19 20
32 16 37 16 28 1 -4 -7 -3 -8 4 -4 7 4 12 12 12 17 0 16 42 48 63 49 10 0 30
11 45 25 42 39 40 29 -3 -16z m-5862 -8 c56 -27 122 -97 150 -159 29 -64 29
-180 0 -237 -23 -44 -111 -140 -121 -131 -3 4 9 19 28 34 37 30 80 113 80 154
0 15 4 29 9 32 5 4 6 17 1 34 -5 15 -14 47 -20 72 -13 50 -26 68 -85 119 -22
19 -32 32 -23 28 10 -3 20 -2 23 2 3 5 -8 14 -24 19 -19 7 -31 7 -33 1 -2 -6
-19 -4 -40 6 -63 26 -199 20 -275 -11 -19 -8 -39 -12 -45 -8 -7 4 -8 3 -4 -4
8 -14 -30 -36 -50 -28 -7 3 -13 2 -12 -2 2 -4 -36 -45 -83 -92 -102 -102 -148
-180 -184 -310 -31 -111 -57 -341 -48 -420 4 -43 3 -52 -6 -44 -9 8 -13 53
-13 135 -1 171 0 189 12 189 5 0 10 5 10 11 0 5 -4 7 -10 4 -15 -10 -12 60 6
134 28 112 95 232 179 320 110 114 223 168 380 180 95 7 137 2 198 -28z m5667
23 c0 -6 -65 -34 -77 -33 -4 0 10 9 32 19 48 22 45 21 45 14z m-1450 -8 c0 -2
-7 -7 -16 -10 -8 -3 -12 -2 -9 4 6 10 25 14 25 6z m235 -62 c-11 -2 -114 -9
-230 -14 -196 -10 -328 -21 -400 -34 -16 -2 -59 -7 -95 -11 -68 -7 -197 -29
-265 -46 -22 -6 -49 -12 -60 -14 -11 -3 -49 -11 -84 -19 -35 -8 -70 -12 -77
-9 -6 2 -15 -1 -19 -6 -3 -6 -11 -9 -16 -5 -5 3 -17 0 -26 -8 -9 -7 -18 -12
-20 -10 -2 1 -13 0 -26 -2 -12 -3 -57 -10 -99 -17 -43 -6 -78 -15 -78 -19 0
-5 -15 -8 -32 -8 -86 0 -833 -237 -1028 -326 -19 -8 -159 -65 -310 -125 -151
-60 -296 -120 -323 -134 -26 -14 -63 -31 -83 -37 -20 -7 -97 -41 -171 -76 -74
-35 -143 -64 -154 -64 -10 0 -19 -4 -19 -10 0 -14 -52 -37 -74 -32 -13 3 -16
0 -11 -10 5 -7 5 -10 0 -6 -4 4 -20 -1 -34 -11 -14 -10 -93 -53 -176 -94 -82
-42 -183 -95 -222 -117 -68 -39 -73 -40 -73 -21 0 13 10 26 25 33 13 6 22 14
20 18 -7 11 522 267 735 355 30 12 141 60 245 105 1062 460 1840 676 2750 764
119 12 488 20 430 10z m-3396 -126 c-61 -100 -157 -238 -166 -238 -5 0 1 10
57 95 67 100 135 206 149 233 7 13 15 22 18 19 2 -3 -24 -52 -58 -109z m627
37 c-8 -27 -15 -42 -15 -31 -1 23 22 103 26 90 1 -5 -4 -31 -11 -59z m3489 45
c3 -5 1 -10 -4 -10 -6 0 -11 5 -11 10 0 6 2 10 4 10 3 0 8 -4 11 -10z m485 -5
c0 -1 -6 -8 -14 -15 -12 -9 -15 -8 -13 8 0 12 6 18 14 15 7 -3 13 -6 13 -8z
m-6488 -32 c-5 -10 -32 -85 -60 -168 -63 -187 -84 -309 -85 -488 0 -78 -5
-141 -10 -144 -6 -4 -7 4 -3 20 3 15 2 27 -5 29 -16 5 -25 168 -10 177 7 5 12
44 14 109 1 56 5 102 9 102 8 0 22 65 20 93 0 9 3 15 8 12 4 -3 16 16 26 42
37 102 97 243 101 239 3 -2 0 -13 -5 -23z m41 12 c-3 -9 -8 -14 -10 -11 -3 3
-2 9 2 15 9 16 15 13 8 -4z m1666 -2 c-8 -10 -41 -49 -74 -88 -33 -38 -71 -87
-84 -107 -12 -21 -25 -38 -27 -38 -13 0 90 144 145 203 43 46 67 64 40 30z
m4401 7 c0 -5 -2 -10 -4 -10 -3 0 -8 5 -11 10 -3 6 -1 10 4 10 6 0 11 -4 11
-10z m323 0 c7 0 6 -5 -2 -12 -11 -10 -14 -10 -18 0 -3 6 -9 12 -14 12 -6 0
-7 -4 -4 -10 3 -6 -4 -10 -16 -10 -22 0 -22 0 -3 15 10 8 25 12 32 10 8 -3 19
-5 25 -5z m-163 -15 c0 -9 -9 -15 -25 -15 -24 0 -32 10 -18 23 12 13 43 7 43
-8z m80 10 c0 -2 -8 -9 -18 -14 -14 -8 -19 -6 -19 5 0 7 9 14 19 14 10 0 18
-2 18 -5z m-4123 -37 c-3 -7 -5 -2 -5 12 0 14 2 19 5 13 2 -7 2 -19 0 -25z
m-686 -45 c-55 -76 -111 -183 -147 -282 -21 -54 -24 -59 -19 -26 8 56 87 216
148 302 29 40 55 73 59 73 4 0 -14 -30 -41 -67z m2038 31 c-12 -13 -31 -24
-42 -24 -23 0 -18 22 7 26 21 3 35 14 17 14 -7 0 -10 4 -7 9 3 5 15 7 27 4 20
-6 20 -6 -2 -29z m3076 26 c-3 -5 -12 -10 -18 -10 -7 0 -6 4 3 10 19 12 23 12
15 0z m-4031 -32 c-8 -15 -18 -28 -22 -28 -4 0 -8 -9 -9 -21 -2 -26 -51 -109
-64 -109 -6 0 -7 -4 -4 -10 3 -5 -1 -10 -9 -10 -9 0 -16 3 -16 6 0 15 36 64
47 64 7 0 10 7 7 15 -4 8 -1 15 5 15 6 0 10 3 10 8 -3 17 2 29 19 48 18 19 22
27 22 42 0 5 6 9 14 9 13 0 13 -4 0 -29z m2046 13 c0 -5 8 -12 18 -14 9 -3 -5
-2 -33 0 -64 7 -83 23 -27 23 23 0 42 -4 42 -9z m96 -15 c8 -8 14 -18 14 -22
0 -5 -5 -3 -11 3 -6 6 -18 9 -26 6 -8 -3 -24 5 -35 17 l-22 23 33 -6 c18 -4
39 -13 47 -21z m2194 21 c0 -2 -13 -13 -29 -25 -22 -16 -32 -19 -37 -9 -4 6
-4 9 0 5 4 -3 16 2 27 13 16 16 39 26 39 16z m-2126 -23 c9 -3 14 -10 11 -14
-3 -4 10 -7 28 -5 40 3 80 -11 74 -27 -2 -7 2 -21 10 -30 14 -16 13 -16 -16
-5 -17 6 -31 17 -31 24 0 6 -4 15 -10 18 -6 4 -7 -1 -4 -12 5 -15 2 -14 -14 4
-13 15 -22 19 -30 11 -12 -12 -47 4 -56 27 -6 16 10 20 38 9z m1614 -11 c-10
-2 -26 -2 -35 0 -10 3 -2 5 17 5 19 0 27 -2 18 -5z m-5723 -12 c15 -6 10 -8
-20 -8 -30 -1 -56 -11 -105 -44 -74 -49 -100 -74 -138 -133 -15 -22 -29 -43
-33 -46 -3 -3 -24 -30 -46 -60 -46 -61 -78 -135 -98 -225 l-13 -60 -1 80 c-2
176 81 370 190 442 79 52 203 78 264 54z m2807 -13 c-9 -9 -15 -9 -24 0 -9 9
-7 12 12 12 19 0 21 -3 12 -12z m1448 -19 c0 -5 4 -7 10 -4 5 3 24 -2 42 -12
18 -9 38 -18 43 -19 12 -2 117 -65 178 -107 60 -41 105 -78 165 -137 32 -31
101 -87 155 -125 63 -44 97 -75 97 -87 0 -10 5 -18 11 -18 5 0 7 5 4 10 -3 6
-2 10 3 10 5 0 12 -11 14 -25 3 -14 4 -25 2 -25 -2 0 -30 17 -61 37 -83 52
-153 113 -153 133 0 11 -8 16 -22 16 -16 -1 -22 4 -20 14 2 8 0 12 -3 8 -8 -8
-49 12 -82 41 -23 19 -32 38 -13 26 6 -3 10 -2 10 4 0 17 -22 24 -31 10 -8
-13 -13 -6 -10 14 0 4 -7 7 -17 7 -10 0 -45 19 -78 42 -32 23 -93 61 -134 86
-41 24 -87 57 -102 74 -30 32 -33 38 -18 38 6 0 10 -5 10 -11z m-1486 -6 c-5
-5 -12 -12 -16 -18 -4 -6 -8 -2 -8 8 0 9 7 17 17 17 9 0 12 -3 7 -7z m1826
-40 c44 -21 69 -38 61 -41 -8 -3 -17 0 -19 7 -2 6 -11 11 -20 11 -9 1 -46 17
-82 36 -81 43 -41 35 60 -13z m-1860 22 c0 -8 -3 -14 -7 -13 -5 1 -19 -4 -33
-11 l-25 -14 24 27 c28 29 41 33 41 11z m3240 -14 c-25 -14 -76 -24 -65 -13
10 10 38 19 65 21 13 0 13 -1 0 -8z m-6787 -16 c-3 -9 -8 -14 -10 -11 -3 3 -2
9 2 15 9 16 15 13 8 -4z m6664 -21 c-3 -3 -12 -4 -19 -1 -8 3 -5 6 6 6 11 1
17 -2 13 -5z m-1043 -92 c102 -61 246 -131 351 -169 89 -32 88 -32 230 -48
l120 -14 -120 4 c-93 3 -137 9 -195 28 -84 28 -228 86 -292 118 -58 28 -228
142 -228 152 0 9 18 0 134 -71z m1281 69 c-14 -13 -200 -111 -211 -111 -5 0
34 23 86 51 52 28 99 55 105 60 5 5 14 9 19 9 6 0 6 -3 1 -9z m-7124 -23 c-5
-13 -23 -57 -40 -98 -18 -41 -30 -79 -28 -85 2 -5 -2 -55 -9 -110 -8 -55 -17
-176 -21 -270 -8 -193 -21 -174 -22 30 -1 104 9 197 34 310 5 22 4 26 -4 14
-18 -27 -52 -168 -76 -308 l-23 -136 -2 80 c-2 44 -4 91 -6 105 -6 44 16 152
48 232 17 43 33 76 36 73 3 -2 19 28 37 68 17 39 37 71 43 69 7 -1 17 9 22 23
5 14 12 25 15 25 2 0 0 -10 -4 -22z m4112 15 c-13 -2 -33 -2 -45 0 -13 2 -3 4
22 4 25 0 35 -2 23 -4z m152 -3 c3 -5 -3 -10 -15 -10 -12 0 -18 5 -15 10 3 6
10 10 15 10 5 0 12 -4 15 -10z m85 -10 c0 -5 -6 -10 -14 -10 -8 0 -18 5 -21
10 -3 6 3 10 14 10 12 0 21 -4 21 -10z m50 -5 c14 -16 10 -18 -14 -9 -9 3 -16
10 -16 15 0 14 16 11 30 -6z m-1598 -48 c-14 -23 -43 -64 -64 -91 -37 -48 -38
-48 -34 -17 2 17 19 50 38 73 19 24 40 53 47 65 7 13 17 20 26 17 11 -5 9 -14
-13 -47z m1692 26 c6 -15 8 -15 17 -3 8 11 12 12 16 2 2 -6 9 -10 13 -7 16 10
60 -7 61 -24 0 -10 2 -11 6 -3 7 17 30 15 37 -4 4 -9 5 -19 3 -21 -8 -7 -170
45 -185 61 -15 15 -15 16 5 16 11 0 24 -8 27 -17z m203 -58 c8 -8 19 -13 24
-10 5 4 9 1 9 -5 0 -6 8 -9 18 -6 22 7 85 -22 77 -35 -4 -5 1 -6 9 -3 10 4 16
1 16 -9 0 -18 27 -31 32 -15 4 10 120 -50 213 -111 62 -40 124 -88 120 -93 -2
-2 5 -4 15 -5 11 -1 47 -23 81 -50 34 -26 74 -58 90 -69 25 -18 27 -23 14 -28
-20 -7 -38 2 -29 15 3 5 2 9 -3 8 -20 -3 -34 2 -28 11 3 5 0 7 -7 5 -8 -3 -50
19 -93 49 -157 108 -214 146 -221 146 -4 0 -15 6 -23 14 -25 22 -257 145 -298
159 -22 7 -39 20 -41 30 -4 21 5 22 25 2z m748 -79 c44 -28 123 -85 175 -126
52 -41 119 -90 148 -109 28 -18 52 -35 52 -38 0 -10 -103 53 -186 114 -225
167 -271 200 -306 222 -21 12 -38 25 -38 28 0 6 46 -21 155 -91z m-70 76 c-3
-3 -11 0 -18 7 -9 10 -8 11 6 5 10 -3 15 -9 12 -12z m-3381 -42 c-10 -16 -20
-28 -22 -26 -4 5 28 56 35 56 2 0 -4 -13 -13 -30z m4381 -1 c93 -19 287 -12
450 17 64 11 -2 -15 -77 -30 -110 -23 -294 -21 -387 3 -40 11 -75 22 -79 27
-4 4 4 4 18 0 14 -3 48 -11 75 -17z m-5360 -40 c17 -6 45 -11 63 -10 23 2 32
-2 32 -13 0 -19 -27 -21 -67 -5 -15 7 -37 13 -47 14 -20 2 -56 39 -56 58 0 6
10 1 23 -11 12 -11 36 -26 52 -33z m4585 -52 c52 -33 140 -87 195 -120 55 -33
114 -68 130 -78 17 -10 24 -19 17 -19 -31 0 -221 108 -355 202 -209 146 -204
151 13 15z m-200 -32 c57 -58 94 -105 85 -105 -4 0 -45 36 -92 80 -46 44 -90
80 -97 80 -7 0 -25 14 -42 32 l-29 31 63 -34 c35 -19 86 -56 112 -84z m-1936
70 c-6 -16 -24 -21 -24 -7 0 11 11 22 21 22 5 0 6 -7 3 -15z m46 0 c0 -8 -7
-15 -15 -15 -16 0 -20 12 -8 23 11 12 23 8 23 -8z m36 4 c4 -8 9 -7 16 2 8 11
11 11 15 1 4 -10 8 -10 19 -2 14 12 34 6 34 -11 0 -5 -25 -9 -55 -9 -42 0 -55
3 -55 15 0 18 16 20 26 4z m132 -7 c2 -7 -5 -12 -17 -12 -14 0 -19 5 -14 15 6
17 25 15 31 -3z m180 -21 c2 -6 8 -11 13 -11 6 0 7 5 4 10 -3 6 -2 10 4 10 5
0 9 -9 8 -20 -1 -15 -6 -18 -27 -13 -14 3 -32 12 -41 19 -18 16 -33 18 -24 4
3 -5 -1 -10 -9 -10 -9 0 -16 5 -16 11 0 6 -9 9 -20 6 -21 -5 -35 7 -26 22 7
11 129 -14 134 -28z m-1959 -92 c-34 -66 -63 -118 -66 -115 -3 3 1 17 9 33 33
65 110 203 114 203 2 0 -23 -54 -57 -121z m-349 92 c0 -11 -5 -23 -11 -27 -8
-5 -6 -10 5 -16 30 -17 18 -55 -16 -49 -5 0 -8 -4 -8 -10 0 -6 7 -9 15 -5 10
3 15 -1 15 -12 0 -34 -22 -94 -40 -112 -26 -26 -38 -5 -13 22 10 12 12 18 6
14 -9 -5 -13 1 -13 18 0 14 7 29 16 34 11 6 13 12 6 16 -6 4 -9 12 -7 19 2 7
9 38 15 70 11 54 30 79 30 38z m2720 9 c8 -5 11 -10 5 -10 -5 0 -17 5 -25 10
-8 5 -10 10 -5 10 6 0 17 -5 25 -10z m-1580 -4 c0 -2 -6 -9 -13 -15 -10 -8
-14 -7 -14 4 0 8 6 15 14 15 7 0 13 -2 13 -4z m1250 -16 c0 -5 -4 -10 -10 -10
-5 0 -10 5 -10 10 0 6 5 10 10 10 6 0 10 -4 10 -10z m513 -58 c64 -30 117 -59
117 -63 0 -4 -42 13 -92 39 -51 26 -115 58 -143 70 -27 12 -39 19 -25 16 14
-3 78 -31 143 -62z m-1807 36 c-1 -13 -6 -22 -9 -20 -7 2 -7 10 0 30 8 20 13
14 9 -10z m1330 10 c8 -7 20 -18 28 -24 8 -8 18 -9 30 -2 9 5 25 6 34 2 9 -4
23 -8 31 -10 8 -1 17 -6 20 -11 3 -4 16 -9 29 -10 12 -2 86 -35 165 -74 235
-117 452 -278 608 -451 217 -240 277 -305 339 -366 36 -35 56 -59 45 -54 -25
13 -479 474 -480 487 0 6 -5 10 -11 10 -17 0 -134 107 -128 117 3 4 -2 8 -10
8 -9 0 -16 7 -16 15 0 8 -5 15 -10 15 -6 0 -35 18 -65 40 -56 41 -72 49 -59
28 4 -7 3 -8 -4 -4 -7 4 -12 13 -12 21 0 7 -7 15 -15 19 -8 3 -15 1 -15 -4 0
-5 -46 15 -102 44 -132 67 -252 118 -355 151 -46 14 -83 30 -83 35 0 6 5 10
11 10 5 0 7 5 4 10 -9 14 3 13 21 -2z m837 -50 c26 -15 51 -28 55 -28 4 0 13
-10 21 -22 l13 -21 -33 22 c-19 12 -55 33 -81 46 -26 14 -49 29 -53 35 -8 14
20 2 78 -32z m-4277 -32 c-14 -33 -31 -53 -21 -23 19 54 26 69 31 64 3 -2 -2
-21 -10 -41z m1958 13 c-4 -7 -44 -19 -44 -13 0 13 36 39 42 30 4 -6 5 -13 2
-17z m87 -20 c-23 -22 -48 -39 -56 -39 -7 0 -16 -6 -18 -12 -4 -9 -6 -8 -6 3
-1 14 49 59 66 59 5 0 14 9 21 20 7 12 18 18 24 14 6 -4 -5 -22 -31 -45z
m1832 -5 c131 -66 197 -103 234 -130 18 -14 36 -24 40 -23 15 4 43 -13 37 -22
-3 -5 4 -9 14 -9 11 0 26 -8 33 -17 12 -14 12 -16 0 -8 -9 5 -12 4 -7 -3 4 -6
12 -9 19 -7 7 3 53 -37 102 -87 50 -51 78 -82 64 -70 -15 13 -30 22 -36 20 -5
-2 -54 36 -108 85 -55 48 -149 116 -208 152 -60 36 -110 65 -111 65 -2 0 -43
22 -92 50 -112 63 -101 65 19 4z m-1943 -19 c-7 -8 -17 -12 -23 -8 -5 3 -7 1
-4 -4 8 -12 -57 -73 -76 -73 -7 1 -5 6 6 14 9 7 17 18 17 24 0 6 6 9 14 6 8
-3 17 -1 21 5 3 6 1 11 -6 11 -21 0 18 36 41 37 18 2 19 -1 10 -12z m1455 -26
c15 -14 -7 -10 -35 7 l-25 15 25 -7 c14 -3 29 -10 35 -15z m1025 6 c17 -9 30
-20 30 -26 0 -11 -21 -1 -55 25 -26 20 -12 20 25 1z m-5367 -82 c-5 -93 8
-174 61 -372 14 -52 28 -131 31 -175 l5 -81 -24 120 c-13 66 -38 172 -57 235
-25 88 -33 135 -33 200 -1 77 9 160 19 160 2 0 1 -39 -2 -87z m933 50 c-4 -21
-15 -69 -25 -108 -11 -38 -26 -110 -35 -160 -28 -150 -28 -149 -36 -135 -5 9
-8 5 -8 -11 1 -77 -16 -145 -39 -153 -9 -4 -17 -5 -19 -3 -2 1 3 43 11 92 8
50 15 131 15 180 0 62 3 85 10 75 5 -8 10 -33 11 -55 1 -36 14 -97 19 -85 2 7
6 32 19 120 21 151 55 280 74 280 5 0 6 -17 3 -37z m6242 20 c-10 -2 -26 -2
-35 0 -10 3 -2 5 17 5 19 0 27 -2 18 -5z m-2718 -23 c19 -4 56 -17 82 -30 26
-12 59 -23 72 -24 13 0 22 -4 19 -8 -2 -5 5 -8 16 -8 12 0 21 -5 21 -11 0 -6
9 -9 20 -6 11 3 18 1 15 -4 -3 -4 7 -11 22 -14 67 -13 286 -153 380 -241 l48
-46 -42 31 c-24 17 -60 44 -80 59 -79 59 -135 94 -141 88 -3 -4 3 -13 14 -20
10 -8 28 -22 39 -31 40 -32 -24 5 -107 62 -90 62 -242 137 -372 182 -90 31
-128 51 -71 36 17 -4 46 -11 65 -15z m965 0 c3 -5 1 -10 -4 -10 -6 0 -11 5
-11 10 0 6 2 10 4 10 3 0 8 -4 11 -10z m1115 -33 c19 -8 43 -18 53 -21 11 -4
15 -11 11 -18 -6 -10 -4 -10 8 0 13 10 19 10 32 -3 9 -9 21 -13 26 -10 6 4 22
-1 37 -10 21 -14 27 -15 34 -4 7 11 12 12 28 2 15 -9 34 -10 73 -3 29 5 77 11
105 12 29 2 53 5 53 8 0 9 90 31 100 25 5 -3 11 -1 15 5 3 5 16 10 28 10 21
-1 20 -2 -4 -15 -37 -20 -111 -44 -147 -49 -16 -1 -34 -6 -40 -10 -40 -24
-301 -13 -310 14 -2 6 -7 8 -12 5 -13 -8 -62 14 -55 25 3 5 -1 10 -10 10 -9 0
-13 -5 -9 -11 4 -8 -1 -9 -17 -4 -37 11 -82 39 -87 54 -3 8 0 11 7 7 6 -4 11
-2 11 4 0 7 6 8 18 2 9 -5 33 -16 52 -25z m-968 -54 c37 -20 66 -39 63 -41 -6
-6 -195 102 -195 111 0 5 15 -1 33 -12 17 -12 62 -38 99 -58z m-1185 23 c130
-48 265 -107 260 -112 -2 -2 -35 9 -73 25 -38 17 -118 49 -179 71 -143 54
-152 59 -138 59 7 1 65 -19 130 -43z m-2807 -2 c0 -8 -5 -12 -10 -9 -7 4 -9
-2 -4 -19 5 -19 2 -26 -9 -26 -14 0 -15 14 -1 58 5 17 24 15 24 -4z m340 -58
c-12 -30 -28 -57 -36 -60 -8 -3 -14 -11 -13 -18 0 -10 2 -10 6 0 2 6 9 12 14
12 11 0 0 -30 -18 -52 -8 -9 -12 -21 -9 -26 6 -10 -34 -25 -44 -16 -3 3 3 12
13 19 11 7 20 29 22 52 2 21 9 52 15 68 12 31 60 88 68 80 3 -2 -5 -29 -18
-59z m-1903 -8 c-3 -7 -5 -2 -5 12 0 14 2 19 5 13 2 -7 2 -19 0 -25z m1430
-11 c-6 -44 -66 -221 -73 -215 -2 2 12 52 31 111 19 58 35 116 35 127 0 11 3
20 6 20 4 0 4 -19 1 -43z m3293 -34 c164 -88 233 -139 315 -233 l30 -35 -30
26 c-16 15 -46 41 -65 58 -57 52 -228 163 -322 209 -49 23 -88 45 -88 47 0 9
55 -17 160 -72z m-3455 40 c-4 -16 -15 -66 -25 -113 -10 -47 -18 -74 -19 -60
-1 38 37 200 46 200 3 0 2 -12 -2 -27z m2992 -29 c-2 -2 -24 7 -47 20 -24 14
-48 22 -53 19 -6 -3 -7 -1 -3 5 5 8 22 4 58 -14 27 -14 48 -27 45 -30z m1633
26 c22 -11 40 -24 40 -29 0 -19 -13 -18 -37 2 -13 12 -29 22 -35 22 -6 0 -13
6 -15 13 -6 17 1 15 47 -8z m-4345 -7 c-6 -60 -48 -173 -65 -173 -14 0 -12 15
7 58 9 20 15 43 14 50 -1 6 6 12 16 13 11 0 13 3 6 6 -18 7 -16 28 3 47 20 20
21 20 19 -1z m2842 -33 c158 -56 412 -198 474 -267 29 -32 18 -26 -79 44 -41
30 -148 89 -236 132 -250 121 -252 122 -231 115 11 -3 43 -14 72 -24z m-62
-11 c34 -16 36 -18 11 -14 -16 4 -39 13 -50 21 -28 20 -9 16 39 -7z m1752 -65
c-2 -2 -18 3 -35 12 -18 8 -37 12 -43 8 -7 -4 -20 4 -31 17 -11 13 -16 18 -12
10 5 -9 3 -12 -4 -7 -7 4 -12 16 -12 26 0 17 9 14 71 -22 38 -22 68 -42 66
-44z m-4910 34 c-3 -7 -5 -2 -5 12 0 14 2 19 5 13 2 -7 2 -19 0 -25z m2668 -9
c43 -12 124 -52 181 -88 65 -42 45 -39 -52 8 -45 22 -117 54 -160 72 -93 38
-119 56 -49 34 28 -9 64 -20 80 -26z m2312 -52 c4 -6 -2 -8 -15 -5 -12 4 -20
2 -16 -3 3 -5 1 -9 -5 -9 -5 0 -9 8 -8 19 1 19 31 18 44 -2z m-5797 -20 c0
-12 -5 -29 -10 -37 -7 -11 -10 -3 -10 28 0 26 4 41 10 37 6 -3 10 -16 10 -28z
m4150 18 c7 -8 8 -15 2 -15 -5 0 -15 7 -22 15 -7 8 -8 15 -2 15 5 0 15 -7 22
-15z m871 -2 c13 -16 12 -17 -3 -4 -10 7 -18 15 -18 17 0 8 8 3 21 -13z
m-1586 -34 c58 -23 105 -45 105 -50 0 -5 8 -9 18 -9 9 0 31 -9 47 -20 28 -19
28 -20 7 -20 -12 0 -39 11 -60 24 -21 13 -78 41 -128 62 -83 35 -118 54 -101
54 4 0 55 -18 112 -41z m2405 10 c15 -26 7 -34 -19 -20 -12 7 -18 17 -15 26 8
21 21 19 34 -6z m-4362 -8 c-15 -24 -48 -35 -48 -16 0 15 27 34 48 35 10 0 10
-4 0 -19z m2272 -18 c36 -15 57 -30 52 -35 -5 -5 -33 5 -68 26 -70 43 -66 45
16 9z m3106 12 c-26 -19 -42 -19 -26 0 7 8 20 15 29 15 13 -1 13 -3 -3 -15z
m-7511 -45 c46 -28 84 -79 133 -175 26 -52 43 -99 47 -135 5 -55 5 -54 -24 33
-46 137 -124 241 -213 284 -21 10 -38 21 -38 25 0 11 57 -9 95 -32z m6575 28
c0 -5 4 -7 9 -3 6 3 15 -4 21 -15 12 -23 11 -24 -27 -8 -31 13 -38 15 -53 17
-24 3 -7 18 20 18 17 0 30 -4 30 -9z m885 2 c3 -5 -1 -10 -10 -10 -9 0 -13 5
-10 10 3 6 8 10 10 10 2 0 7 -4 10 -10z m-5692 -35 c-8 -22 -22 -18 -16 5 3
11 9 17 14 15 4 -3 6 -12 2 -20z m4985 -6 c93 -20 201 -27 221 -14 6 3 11 2
11 -3 0 -14 38 -22 43 -9 1 5 9 8 15 6 10 -3 9 -9 -2 -24 -13 -18 -19 -19
-141 -8 -69 7 -132 17 -139 23 -8 5 -20 8 -28 5 -8 -3 -21 1 -28 10 -7 8 -18
15 -24 15 -6 0 -4 -5 4 -10 25 -16 -7 -12 -40 5 -35 18 -41 40 -7 31 12 -4 64
-16 115 -27z m-4648 17 c0 -2 -9 -6 -20 -9 -11 -3 -18 -1 -14 4 5 9 34 13 34
5z m5144 -26 c-14 -14 -82 -26 -69 -12 9 9 28 15 70 21 5 0 5 -3 -1 -9z
m-5178 -17 c-2 -9 -14 -20 -27 -25 -23 -8 -23 -7 -5 7 11 8 16 15 12 15 -4 0
-4 5 -1 10 10 16 23 12 21 -7z m1189 -15 c106 -24 167 -47 159 -59 -3 -5 1 -6
9 -3 19 7 200 -84 192 -96 -3 -5 0 -7 8 -5 16 7 70 -33 62 -45 -8 -13 -35 -1
-35 15 0 7 -10 13 -22 13 -29 0 -97 42 -98 61 0 8 -6 11 -15 7 -9 -3 -23 -2
-33 3 -70 36 -164 69 -290 102 -64 17 -119 33 -122 36 -8 8 88 -7 185 -29z
m535 -20 c211 -81 296 -108 367 -114 80 -8 89 -24 14 -24 -98 0 -279 59 -491
159 -92 44 -27 31 110 -21z m995 23 c52 -23 107 -70 98 -83 -3 -7 -1 -8 5 -4
17 10 70 -70 89 -133 24 -83 5 -251 -28 -251 -5 0 -6 -6 -3 -14 7 -17 -8 -27
-24 -17 -17 10 -5 38 19 44 10 3 19 11 18 19 0 10 -2 10 -6 1 -5 -14 -33 -18
-33 -4 0 24 24 73 41 82 10 5 19 17 19 26 0 14 -2 14 -15 -3 -14 -18 -14 -17
-15 14 0 20 6 35 15 38 8 4 15 11 15 16 0 6 -6 5 -15 -2 -17 -14 -17 -13 -34
56 -14 54 -67 131 -102 150 -30 15 -40 30 -14 20 8 -3 15 -1 15 3 0 14 -33 23
-40 10 -6 -8 -13 -8 -28 0 -32 17 -127 13 -189 -9 -31 -11 -60 -17 -65 -14 -5
3 -7 1 -6 -4 4 -11 -59 -65 -64 -55 -3 5 -3 2 -2 -5 2 -7 -4 -20 -14 -30 -9
-10 -18 -29 -20 -42 -14 -110 -14 -120 9 -167 13 -27 22 -52 21 -56 -1 -5 2
-5 8 -2 6 4 20 -1 31 -11 31 -28 98 -20 137 17 15 14 23 18 20 9 -7 -23 -68
-60 -97 -60 -14 0 -44 9 -67 19 -126 57 -136 254 -18 375 84 86 230 115 339
67z m-3035 9 c0 -5 -4 -10 -10 -10 -5 0 -10 5 -10 10 0 6 5 10 10 10 6 0 10
-4 10 -10z m5400 0 c0 -12 -57 -14 -63 -2 -3 4 10 8 29 9 19 2 34 -2 34 -7z
m-80 -10 c0 -5 -5 -10 -11 -10 -5 0 -7 5 -4 10 3 6 8 10 11 10 2 0 4 -4 4 -10z
m-580 -25 c14 -8 21 -14 15 -14 -5 0 -21 6 -35 14 -14 8 -20 14 -15 14 6 0 21
-6 35 -14z m80 -30 c19 -7 28 -14 20 -14 -8 0 -28 6 -45 14 -39 17 -21 18 25
0z m-4556 -27 c-7 -11 -34 -10 -34 1 0 6 9 9 19 8 11 0 17 -5 15 -9z m4677 -4
c39 -9 69 -18 66 -20 -5 -5 -136 22 -144 30 -9 9 1 8 78 -10z m-4151 -4 c13
-7 21 -7 25 1 8 12 120 11 217 -3 106 -14 178 -30 173 -38 -3 -5 3 -6 14 -3
10 2 38 -5 62 -16 23 -12 49 -21 56 -21 52 0 350 -183 601 -370 131 -97 202
-143 202 -130 0 6 11 5 28 -3 15 -8 45 -20 67 -27 22 -6 54 -18 71 -26 17 -7
75 -19 130 -25 102 -12 118 -18 136 -52 10 -19 8 -20 -61 -13 -39 4 -93 13
-119 20 -26 8 -81 23 -122 34 -70 20 -100 40 -113 75 -2 6 -8 9 -12 5 -4 -4
-2 -14 5 -23 20 -24 5 -18 -93 34 -107 56 -145 82 -253 171 -146 119 -351 249
-479 302 -22 9 -80 26 -130 38 -49 11 -103 25 -120 30 -63 19 -317 32 -332 16
-4 -3 -18 -6 -32 -5 -23 1 -22 3 14 20 48 22 42 21 65 9z m-860 -15 c-7 -8
-17 -15 -23 -15 -6 0 -2 7 9 15 25 19 30 19 14 0z m-805 -29 c67 -39 80 -63
83 -141 2 -38 5 -71 7 -75 7 -12 -34 -149 -62 -203 -38 -77 -80 -134 -147
-206 -34 -35 -54 -60 -46 -56 39 23 -19 -29 -101 -91 -52 -39 -93 -63 -100
-58 -7 4 -9 3 -6 -2 3 -5 -11 -21 -31 -34 -20 -14 -42 -31 -48 -39 -8 -10 -16
-11 -28 -4 -15 8 -11 13 26 38 141 93 315 253 387 358 17 26 48 81 68 123 30
62 37 91 41 155 3 43 8 76 13 73 17 -10 9 19 -16 62 -31 53 -74 84 -124 91
-129 18 -249 -123 -180 -211 47 -60 116 -54 105 9 -5 24 -3 34 9 38 32 13 42
-70 13 -100 -21 -20 -83 -27 -118 -13 -120 50 -87 229 54 297 64 30 136 26
201 -11z m1124 3 c18 -11 31 -23 28 -26 -3 -3 -16 2 -29 11 -29 21 -87 20
-118 0 -14 -10 -42 -33 -62 -53 -34 -31 -38 -41 -38 -83 0 -37 -4 -50 -20 -58
-16 -9 -18 -15 -10 -30 6 -11 8 -20 4 -20 -3 0 -2 -6 4 -12 17 -21 -10 -107
-42 -135 -15 -12 -21 -23 -14 -23 9 0 9 -3 -2 -10 -11 -7 -17 -4 -22 10 -6 15
-17 20 -48 20 -22 0 -40 -3 -40 -7 0 -8 -25 -40 -70 -93 -21 -24 -21 -23 1 15
13 22 28 43 35 48 7 4 15 24 19 46 l6 38 57 -13 c31 -8 60 -14 64 -14 16 0 38
61 38 105 0 37 -5 51 -26 70 -29 27 -30 27 -119 32 -177 8 -177 8 -196 45 -20
38 -17 48 15 48 15 0 26 -7 29 -20 4 -15 14 -20 42 -20 28 0 38 5 42 20 4 14
14 20 34 20 16 0 29 5 29 10 0 19 48 60 70 60 21 0 63 -35 71 -59 6 -17 54 6
84 39 54 61 124 76 184 39z m1981 -27 c41 -16 100 -35 130 -42 30 -6 69 -15
85 -20 29 -8 28 -8 -11 -9 -23 -1 -73 8 -110 20 -79 24 -194 74 -194 84 0 4 6
5 13 2 6 -3 46 -18 87 -35z m-1486 -14 c5 -10 7 -10 12 -1 7 17 52 6 78 -19
25 -23 13 -23 -21 0 -15 9 -24 11 -20 5 6 -9 0 -13 -22 -13 -17 0 -31 5 -31
11 0 7 -15 9 -44 6 -24 -3 -54 -3 -67 1 -22 6 -21 7 11 13 59 11 98 10 104 -3z
m-1643 -19 l24 -20 -30 17 c-39 24 -40 24 -28 24 6 0 21 -9 34 -21z m1870 -13
c52 -14 126 -38 164 -53 61 -25 70 -32 73 -56 l3 -28 -51 27 c-29 15 -54 33
-57 40 -2 7 -11 10 -18 8 -20 -8 -128 26 -148 47 -19 20 -32 26 -22 9 12 -19
-32 -10 -50 10 -24 27 -12 26 106 -4z m-1228 0 c6 -15 -1 -26 -15 -26 -4 0 -8
9 -8 20 0 23 15 27 23 6z m804 8 c-3 -3 -12 -4 -19 -1 -8 3 -5 6 6 6 11 1 17
-2 13 -5z m-1014 -18 c52 -22 68 -48 70 -108 1 -92 -27 -154 -107 -234 -97
-96 -416 -304 -581 -377 -91 -41 -42 -4 149 110 295 177 382 241 452 336 28
38 45 73 49 102 8 47 -7 106 -31 126 -18 15 -94 21 -94 8 0 -6 -4 -8 -9 -4 -5
3 -19 -7 -31 -22 -18 -22 -21 -37 -17 -73 l5 -45 -19 24 c-23 28 -24 50 -5 96
27 64 100 90 169 61z m673 -31 c25 16 33 8 12 -13 -17 -17 -65 -15 -72 4 -14
36 -6 46 15 20 20 -26 22 -26 45 -11z m-896 -2 c0 -10 -7 -26 -14 -36 -14 -18
-15 -17 -21 3 -7 21 9 50 26 50 5 0 9 -8 9 -17z m2696 -24 c3 -6 -5 -3 -20 6
-14 10 -26 19 -26 22 0 7 39 -17 46 -28z m-1878 -19 c33 -33 30 -37 -15 -17
-19 8 -27 18 -25 30 5 22 5 22 40 -13z m751 4 c10 -9 -35 -3 -49 6 -11 8 -7 9
15 4 17 -4 32 -8 34 -10z m1291 -99 c0 -7 -115 66 -135 86 -11 11 15 -3 58
-31 42 -28 77 -52 77 -55z m-1215 75 c3 -5 1 -10 -4 -10 -6 0 -11 5 -11 10 0
6 2 10 4 10 3 0 8 -4 11 -10z m364 -34 c185 -93 501 -298 501 -323 0 -9 7 -12
18 -8 22 6 75 -31 66 -46 -3 -6 0 -9 7 -8 8 2 84 -31 169 -73 233 -114 376
-156 573 -166 l127 -7 -15 -22 c-17 -24 -73 -34 -59 -10 6 9 4 9 -7 1 -8 -6
-24 -14 -37 -17 -20 -5 -22 -3 -10 11 11 13 11 15 -4 9 -11 -4 -18 -2 -18 5 0
6 -8 4 -18 -5 -23 -21 -42 -22 -42 -2 0 8 5 15 12 15 6 0 8 3 5 7 -4 3 -17 -3
-30 -15 -20 -19 -26 -20 -42 -8 -11 7 -31 12 -45 11 -35 -4 -161 35 -167 51
-3 8 -9 14 -15 14 -5 0 -6 -5 -2 -12 4 -6 3 -9 -2 -7 -15 8 -55 25 -119 52
-33 14 -59 30 -58 35 2 6 -7 9 -20 7 -12 -2 -42 7 -67 20 -25 13 -63 33 -85
43 -22 11 -57 32 -78 46 -21 14 -40 26 -42 26 -3 0 -64 40 -137 88 -73 49
-166 108 -206 132 -43 25 -79 54 -87 71 -8 15 -20 31 -26 35 -7 4 -7 -1 1 -16
6 -12 9 -24 6 -27 -10 -10 -74 37 -110 81 -57 70 -53 71 63 12z m-1849 5 c0
-9 -22 -31 -31 -31 -5 0 -5 38 0 47 3 5 31 -10 31 -16z m1530 9 c0 -5 -2 -10
-4 -10 -3 0 -8 5 -11 10 -3 6 -1 10 4 10 6 0 11 -4 11 -10z m167 -66 c70 -36
132 -69 138 -75 16 -16 -57 12 -98 38 -21 13 -43 21 -49 17 -7 -4 -8 -3 -4 4
6 11 -27 36 -36 27 -7 -8 -98 35 -98 45 0 17 16 11 147 -56z m403 41 c22 -14
40 -28 40 -31 0 -6 -67 32 -84 48 -20 17 6 7 44 -17z m-2150 -5 c0 -5 -2 -10
-4 -10 -3 0 -8 5 -11 10 -3 6 -1 10 4 10 6 0 11 -4 11 -10z m460 -43 c12 3 20
0 20 -6 0 -7 -4 -9 -10 -6 -5 3 -10 1 -10 -6 0 -7 -4 -8 -12 -2 -12 8 -19 9
-55 5 -7 -1 -13 -10 -13 -19 0 -14 -2 -15 -9 -4 -5 7 -14 10 -20 7 -19 -12
-12 10 9 29 11 10 22 26 25 36 6 17 9 16 31 -10 17 -20 30 -27 44 -24z m-1218
13 c45 -13 103 -75 117 -127 6 -21 10 -63 10 -93 l-1 -55 -9 54 c-20 118 -82
191 -165 191 -82 0 -135 -75 -114 -161 6 -24 12 -48 13 -54 6 -22 19 -35 38
-35 11 0 17 -4 14 -10 -10 -16 -80 25 -93 55 -16 35 -15 98 2 138 17 41 65 85
102 97 39 11 44 11 86 0z m1388 -4 c0 -3 -4 -8 -10 -11 -5 -3 -10 -1 -10 4 0
6 5 11 10 11 6 0 10 -2 10 -4z m1702 -83 c64 -45 128 -99 128 -109 0 -4 -6 -1
-14 5 -11 9 -15 9 -18 -1 -4 -11 -11 -10 -39 1 -19 7 -44 14 -56 13 -12 0 -33
10 -46 22 -14 11 -30 22 -36 24 -12 2 -121 73 -121 78 0 15 139 -44 272 -117
41 -22 28 -6 -22 28 -30 20 -57 40 -58 45 -2 4 -9 5 -15 1 -7 -3 -9 -2 -4 2 4
5 -18 26 -48 48 -30 21 -55 41 -55 43 0 5 57 -31 132 -83z m-2011 6 c14 -27
-7 -44 -28 -23 -18 17 -18 17 -53 -1 -22 -11 -30 -12 -30 -4 0 46 89 68 111
28z m642 14 c-7 -2 -19 -2 -25 0 -7 3 -2 5 12 5 14 0 19 -2 13 -5z m262 -13
c122 -34 356 -148 504 -245 95 -63 145 -105 124 -105 -6 0 -17 7 -24 16 -27
33 -274 182 -284 172 -3 -3 38 -31 91 -64 97 -59 225 -160 344 -270 81 -75
144 -120 240 -174 79 -43 61 -45 -25 -2 -90 45 -209 127 -265 185 -81 82 -229
198 -357 279 -62 39 -110 74 -108 79 6 9 -151 75 -228 95 -34 8 -79 20 -99 25
-55 14 -48 32 10 24 26 -4 61 -10 77 -15z m-1325 -20 c0 -5 -5 -10 -12 -10 -6
0 -20 -7 -30 -17 -17 -15 -18 -15 -18 1 0 9 10 21 23 26 30 12 37 12 37 0z
m3846 -23 c20 8 17 -10 -7 -41 -17 -22 -24 -25 -31 -14 -6 9 -7 6 -3 -8 4 -17
-3 -29 -29 -51 -29 -24 -42 -28 -77 -25 l-42 4 24 18 c13 10 35 17 49 16 14
-2 17 -1 7 1 -16 4 -11 13 30 57 26 29 52 49 57 45 5 -4 15 -5 22 -2z m-2092
-52 c3 -9 10 -13 16 -10 5 3 10 1 10 -4 0 -14 -6 -14 -31 0 -11 5 -16 15 -13
21 5 7 2 9 -9 5 -11 -4 -20 1 -28 14 -10 20 -9 20 19 5 16 -8 32 -22 36 -31z
m252 4 c3 -6 -5 -3 -20 6 -14 10 -26 19 -26 22 0 7 39 -17 46 -28z m-2385 -19
c14 -27 16 -43 10 -65 l-9 -30 -1 33 c-1 31 -30 72 -51 72 -18 0 -52 -41 -46
-56 3 -9 1 -12 -4 -9 -19 12 -10 54 17 75 36 28 63 22 84 -20z m5716 -41 c36
-11 102 -29 147 -40 l81 -19 -65 6 c-92 9 -268 67 -286 95 -3 6 8 3 25 -6 18
-9 61 -25 98 -36z m-3464 -18 c-2 -6 6 -11 16 -11 11 0 23 -5 27 -11 10 -16
-35 0 -68 24 -16 12 -28 24 -28 29 0 4 -7 8 -15 8 -8 0 -15 5 -15 11 0 6 19 0
43 -14 23 -15 41 -31 40 -36z m-1280 30 c18 -18 12 -90 -9 -108 -28 -25 -36
-50 -18 -57 8 -3 14 -12 14 -20 0 -8 7 -22 16 -30 9 -9 11 -16 4 -16 -6 0 -23
14 -37 31 -17 19 -31 28 -42 24 -10 -4 -8 1 7 17 36 39 46 82 29 118 -10 19
-11 28 -4 24 7 -3 1 4 -13 17 l-25 22 35 -7 c19 -3 38 -10 43 -15z m1642 -2
c11 -16 1 -19 -13 -3 -7 8 -8 14 -3 14 5 0 13 -5 16 -11z m35 -14 c11 -13 10
-14 -4 -9 -9 3 -16 10 -16 15 0 13 6 11 20 -6z m-150 -66 l25 -21 -33 19 c-18
10 -43 29 -55 42 l-22 25 30 -22 c17 -12 41 -31 55 -43z m1865 4 c-15 -26 -51
-72 -79 -101 -52 -55 -116 -107 -101 -83 5 9 3 12 -6 9 -8 -3 -13 -10 -12 -16
1 -5 -4 -13 -13 -16 -8 -3 -12 -2 -9 4 10 17 -9 11 -35 -11 -20 -17 -21 -20
-5 -14 11 3 16 3 12 -1 -9 -10 -77 -33 -77 -27 0 27 81 90 101 78 5 -4 9 0 9
8 0 7 12 20 28 28 15 8 31 20 35 26 4 7 17 18 29 24 15 8 19 8 14 0 -4 -6 -2
-11 3 -11 6 0 12 5 12 10 1 6 2 14 3 19 1 12 15 26 27 27 5 1 14 2 19 3 6 0
10 8 10 18 0 18 49 87 57 79 3 -3 -7 -27 -22 -53z m-2620 -10 c111 -48 294
-147 339 -182 21 -17 46 -33 57 -36 10 -4 19 -10 19 -14 0 -5 44 -37 98 -72
53 -35 122 -83 152 -106 31 -23 65 -44 76 -45 10 -2 36 -16 55 -31 37 -28 55
-35 44 -17 -4 6 5 5 19 -2 14 -6 26 -15 26 -21 0 -5 7 -7 15 -3 8 3 21 -1 29
-9 8 -8 21 -12 29 -9 8 3 22 -2 31 -11 9 -10 24 -14 35 -10 11 3 26 -1 37 -12
16 -16 16 -18 1 -21 -8 -2 -29 4 -46 13 -17 8 -31 14 -31 11 0 -9 -157 57
-230 96 -41 22 -100 59 -130 82 -47 37 -185 126 -415 270 -33 20 -123 69 -200
107 -145 73 -149 82 -10 22z m811 6 c3 -6 -5 -3 -20 6 -14 10 -26 19 -26 22 0
7 39 -17 46 -28z m1507 16 c18 -13 15 -16 -35 -44 -29 -17 -61 -29 -71 -27 -9
2 -15 1 -12 -4 5 -8 -28 -24 -82 -39 -24 -7 -33 -6 -33 2 0 7 -5 4 -11 -5 -14
-25 -53 -22 -73 5 -11 16 -14 17 -9 3 13 -39 -56 -49 -94 -14 -13 12 -23 25
-23 28 0 4 36 11 80 14 44 4 110 15 145 25 36 10 65 14 65 10 0 -5 5 -9 11 -9
6 0 9 6 6 14 -6 16 36 38 58 30 8 -4 15 -1 15 6 0 7 8 10 20 7 11 -3 18 -1 14
4 -8 13 8 10 29 -6z m-4539 -9 c-21 -15 -30 -14 -19 3 3 6 14 11 23 11 13 0
13 -2 -4 -14z m6519 -3 c-7 -2 -21 -2 -30 0 -10 3 -4 5 12 5 17 0 24 -2 18 -5z
m-3802 -20 c13 -16 12 -17 -3 -4 -10 7 -18 15 -18 17 0 8 8 3 21 -13z m208
-95 c58 -56 111 -106 116 -111 6 -5 1 -5 -10 1 -23 12 -177 145 -214 186 -14
15 -19 26 -12 26 7 0 61 -46 120 -102z m-2630 18 c-24 -67 -37 -71 -14 -5 25
71 25 72 31 67 2 -3 -5 -31 -17 -62z m-131 29 c19 -41 14 -81 -20 -166 -26
-66 -41 -88 -86 -129 -54 -49 -100 -70 -152 -70 -42 0 -96 19 -115 40 -22 24
-13 26 21 3 61 -40 186 -3 254 73 55 63 73 115 68 200 -4 78 8 97 30 49z
m-171 -17 c-16 -10 -21 -2 -13 19 6 15 9 15 16 3 6 -9 5 -17 -3 -22z m2818 -8
c21 -22 37 -40 34 -40 -3 0 -23 18 -44 40 -21 22 -37 40 -34 40 3 0 23 -18 44
-40z m-1564 5 c112 -40 159 -101 159 -207 0 -35 -5 -70 -10 -78 -8 -13 -10
-12 -10 4 0 16 -3 15 -21 -8 -56 -71 -154 -74 -198 -7 -14 22 -12 22 28 -7 51
-37 74 -39 115 -13 40 27 55 57 55 111 1 74 -31 119 -114 160 -65 33 -76 35
-160 34 -156 -2 -378 -66 -577 -165 -142 -71 -147 -64 -8 10 150 79 332 148
466 176 82 17 211 12 275 -10z m381 -51 c17 -11 7 -24 -17 -24 -14 0 -25 5
-25 11 0 5 -4 8 -10 4 -13 -8 -60 5 -60 17 0 10 94 3 112 -8z m-1657 -29 c29
-28 34 -89 11 -121 -19 -26 -29 -13 -16 20 30 80 -51 128 -120 70 -43 -37 -63
-80 -57 -121 4 -20 2 -31 -4 -28 -5 4 -9 1 -9 -5 0 -6 -5 -8 -11 -4 -19 11 -6
116 19 151 45 63 142 83 187 38z m4298 18 c-7 -2 -21 -2 -30 0 -10 3 -4 5 12
5 17 0 24 -2 18 -5z m-100 -10 c-7 -2 -19 -2 -25 0 -7 3 -2 5 12 5 14 0 19 -2
13 -5z m-3173 -38 c16 -8 34 -24 40 -34 16 -30 11 -38 -8 -14 -9 11 -33 31
-52 42 -40 24 -24 29 20 6z m3505 -51 c-12 -18 -13 -24 -4 -19 8 3 5 -1 -5 -9
-40 -32 -56 -10 -21 28 32 34 53 34 30 0z m-3732 -11 c9 -9 -13 -34 -24 -27
-14 8 -11 34 4 34 8 0 17 -3 20 -7z m467 -12 c8 -17 6 -20 -20 -26 -17 -4 -37
-16 -45 -28 -8 -12 -15 -16 -15 -10 0 6 -3 18 -6 26 -7 19 30 57 56 57 10 0
24 -9 30 -19z m3190 -5 c0 -17 -18 -31 -49 -39 -18 -4 -21 -3 -12 6 17 17 13
26 -10 20 -14 -4 -18 -11 -14 -22 5 -12 3 -13 -6 -4 -6 6 -8 16 -4 23 17 27
95 40 95 16z m-4055 -16 c-3 -5 -12 -10 -18 -10 -7 0 -6 4 3 10 19 12 23 12
15 0z m-57 -35 c-15 -14 -30 -25 -33 -25 -3 0 -14 -9 -25 -20 -21 -21 -44 -27
-38 -10 3 9 107 79 118 80 3 0 -7 -11 -22 -25z m517 -31 c158 -41 257 -155
258 -299 1 -113 -76 -222 -182 -260 -43 -15 -67 -12 -55 7 3 5 15 7 26 5 13
-4 29 3 45 19 13 13 28 22 33 19 14 -8 63 42 54 56 -4 7 -3 9 4 5 6 -3 13 -2
17 4 3 5 1 10 -5 10 -6 0 -8 5 -5 10 3 6 2 10 -4 10 -5 0 -2 18 6 40 9 22 18
39 20 36 2 -2 -1 -16 -7 -31 -15 -40 -5 -43 15 -4 13 24 16 47 12 85 -12 116
-89 201 -232 255 -86 32 -295 29 -412 -6 -79 -24 -59 -9 24 18 106 35 104 35
223 36 67 1 128 -5 165 -15z m4422 -16 c-3 -7 -5 -2 -5 12 0 14 2 19 5 13 2
-7 2 -19 0 -25z m-5086 -14 c21 -19 14 -61 -8 -43 -10 9 -17 9 -25 1 -8 -8
-14 -7 -24 3 -17 17 -18 27 -2 43 16 16 38 15 59 -4z m-433 -19 c57 -47 197
-255 173 -255 -6 0 -11 6 -11 14 0 8 -7 16 -15 20 -9 3 -15 0 -15 -10 0 -8 -4
-13 -9 -10 -10 7 11 -71 28 -103 6 -11 11 -26 11 -33 0 -7 -19 23 -41 66 -52
101 -104 178 -164 241 -65 68 -70 95 -15 95 16 0 42 -11 58 -25z m5507 -32
c-4 -21 -13 -49 -22 -63 -9 -17 -12 -18 -8 -5 4 11 11 39 18 63 14 52 22 55
12 5z m-4925 7 c-8 -5 -19 -10 -25 -10 -5 0 -3 5 5 10 8 5 20 10 25 10 6 0 3
-5 -5 -10z m-685 -42 c34 -29 109 -128 133 -173 10 -19 8 -21 -28 -20 -32 0
-41 5 -61 35 -42 63 -90 120 -99 115 -4 -3 -14 3 -21 12 -10 12 -10 14 -1 9
15 -9 16 6 1 21 -6 6 -8 16 -5 22 13 20 45 12 81 -21z m450 12 c10 -11 16 -20
14 -21 -57 -10 -80 -8 -86 7 -13 34 44 45 72 14z m185 10 c-8 -5 -19 -10 -25
-10 -5 0 -3 5 5 10 8 5 20 10 25 10 6 0 3 -5 -5 -10z m-295 -69 c0 -13 -8 -29
-17 -35 -14 -8 -22 -6 -40 12 -23 23 -23 23 -3 38 29 22 60 14 60 -15z m2925
-7 c0 -2 -9 0 -20 6 -11 6 -20 13 -20 16 0 2 9 0 20 -6 11 -6 20 -13 20 -16z
m-2134 -9 c-10 -8 -23 -12 -28 -9 -6 4 1 12 14 18 29 16 39 9 14 -9z m-339 -1
c-3 -3 -12 -4 -19 -1 -8 3 -5 6 6 6 11 1 17 -2 13 -5z m91 -39 c41 -34 67 -91
55 -119 -9 -19 -11 -17 -17 16 -3 20 -13 41 -21 48 -8 7 -15 18 -15 25 0 7
-15 22 -32 34 -21 13 -27 21 -16 21 9 0 30 -11 46 -25z m1042 -40 c0 -6 -24 5
-77 33 -66 34 -51 36 17 2 33 -17 60 -32 60 -35z m174 -52 c158 -99 277 -160
356 -184 56 -16 59 -18 20 -13 -52 7 -164 46 -233 81 -26 13 -53 21 -60 17 -7
-4 -9 -3 -4 1 9 10 -21 45 -40 45 -7 0 -13 5 -13 10 0 6 -7 10 -15 10 -8 0
-15 4 -15 8 0 9 -62 50 -152 101 -32 18 -58 34 -58 36 0 11 109 -47 214 -112z
m-2164 54 c0 -5 -13 1 -30 13 -16 12 -30 24 -30 26 0 3 14 -3 30 -13 17 -9 30
-21 30 -26z m905 25 c-3 -3 -11 0 -18 7 -9 10 -8 11 6 5 10 -3 15 -9 12 -12z
m3603 -3 c-18 -9 -49 -19 -68 -22 -19 -3 -29 -3 -22 0 6 2 12 11 12 18 0 18
17 23 68 22 l42 -1 -32 -17z m-4569 -25 c34 -28 41 -61 14 -66 -11 -2 -24 7
-34 23 -44 69 -179 30 -282 -81 -68 -73 -149 -233 -208 -413 -23 -70 -44 -125
-46 -123 -6 6 44 197 73 278 90 251 244 406 406 408 36 0 53 -6 77 -26z m1316
-7 c11 -11 13 -16 5 -12 -12 6 -13 5 -2 -6 32 -34 -10 -117 -45 -87 -18 14
-17 48 2 48 18 0 19 20 3 43 -11 14 -19 15 -50 7 -39 -11 -102 -76 -91 -93 3
-6 1 -7 -5 -3 -5 3 -13 0 -15 -6 -3 -8 -6 -6 -6 5 -1 10 5 30 13 45 43 83 138
113 191 59z m2516 18 c8 8 80 -16 74 -24 -7 -13 -93 10 -100 27 -4 12 -2 12 8
4 8 -7 16 -10 18 -7z m599 -5 c0 -5 5 -10 11 -10 5 0 7 5 4 10 -3 6 -1 10 4
10 6 0 11 -7 11 -16 0 -13 -7 -15 -29 -11 -15 3 -33 1 -40 -6 -6 -6 -11 -8
-11 -4 0 4 -8 3 -18 -2 -19 -10 -52 2 -39 15 6 6 62 20 95 23 6 0 12 -3 12 -9z
m-490 -20 c0 -5 -2 -10 -4 -10 -3 0 -8 5 -11 10 -3 6 -1 10 4 10 6 0 11 -4 11
-10z m-757 -54 c16 -23 17 -27 4 -17 -10 8 -28 28 -40 45 -16 23 -17 27 -4 17
10 -8 28 -28 40 -45z m907 34 c27 -7 18 -8 -39 -5 -41 2 -79 9 -84 14 -12 12
63 6 123 -9z m208 8 c13 -1 17 -18 3 -18 -29 0 -70 14 -65 22 4 5 16 7 28 3
11 -3 27 -7 34 -7z m-4179 -74 c12 -25 20 -48 17 -51 -8 -8 -41 21 -42 37 -1
8 -5 28 -9 44 -11 43 8 25 34 -30z m305 30 c3 -8 2 -12 -4 -9 -6 3 -10 10 -10
16 0 14 7 11 14 -7z m2231 -90 c141 -38 273 -64 334 -65 l56 -1 -40 -10 c-73
-17 -231 -5 -320 26 -79 27 -301 132 -310 146 -2 4 39 -11 93 -32 53 -22 138
-50 187 -64z m-445 70 c22 -15 40 -29 40 -31 0 -5 -27 11 -75 44 -11 7 -16 13
-12 13 4 0 25 -12 47 -26z m-2270 -9 c0 -18 14 -19 42 -4 15 8 23 8 32 -1 6
-6 7 -10 1 -9 -5 1 -23 -3 -38 -9 -39 -16 -84 7 -60 31 11 12 23 8 23 -8z
m-80 -30 c0 -7 -8 -19 -17 -25 -17 -11 -17 -11 0 -6 10 3 17 0 17 -7 0 -10
-55 -39 -142 -75 -4 -2 -8 2 -8 8 0 23 116 120 143 120 4 0 7 -7 7 -15z m3375
-12 l18 -28 -21 19 c-12 11 -22 23 -22 28 0 14 7 9 25 -19z m-1455 7 c8 -5 11
-12 7 -16 -4 -4 -15 0 -24 9 -18 18 -8 23 17 7z m40 -30 c0 -5 -2 -10 -4 -10
-3 0 -8 5 -11 10 -3 6 -1 10 4 10 6 0 11 -4 11 -10z m-670 -16 c0 -8 -4 -12
-10 -9 -5 3 -10 10 -10 16 0 5 5 9 10 9 6 0 10 -7 10 -16z m799 -50 c30 -15
66 -38 79 -51 13 -13 26 -21 30 -19 4 2 30 -7 57 -20 28 -14 82 -33 120 -44
39 -11 75 -27 81 -36 7 -8 13 -11 15 -5 3 8 30 6 84 -5 105 -20 242 -16 377
12 59 12 112 25 117 28 5 4 9 -3 8 -14 -1 -13 -16 -27 -44 -40 -49 -23 -67
-25 -57 -7 4 6 -1 4 -12 -5 -24 -21 -108 -33 -236 -32 -80 1 -101 4 -118 19
-12 11 -20 13 -20 6 0 -12 -46 -5 -66 10 -6 5 -13 7 -16 4 -8 -8 -138 36 -138
47 0 6 -7 7 -16 4 -9 -3 -28 0 -42 7 -15 8 -56 29 -92 47 -36 18 -74 40 -85
49 -11 9 -40 27 -65 40 -51 27 -80 50 -80 63 0 5 15 1 33 -10 17 -11 57 -33
86 -48z m-459 36 c0 -5 -5 -10 -11 -10 -5 0 -7 5 -4 10 3 6 8 10 11 10 2 0 4
-4 4 -10z m-320 -30 c9 -15 4 -30 -9 -30 -4 0 -13 11 -19 24 -9 20 -8 24 4 22
9 -1 19 -9 24 -16z m-1193 -5 c27 -8 58 -25 69 -37 11 -12 13 -18 4 -13 -22
13 -58 18 -140 19 -60 0 -84 -5 -120 -23 -68 -35 -128 -88 -166 -145 -18 -28
-42 -62 -53 -76 -11 -14 -37 -64 -57 -113 -20 -48 -39 -85 -41 -83 -8 8 62
168 104 241 73 125 149 194 251 231 49 17 88 17 149 -1z m-470 -64 l-22 -49
-27 19 c-14 11 -32 19 -40 19 -15 0 80 57 99 59 7 1 4 -17 -10 -48z m1490 43
c-3 -3 -12 -4 -19 -1 -8 3 -5 6 6 6 11 1 17 -2 13 -5z m224 -20 c12 -14 11
-16 -5 -13 -11 2 -21 10 -24 17 -5 17 13 15 29 -4z m1456 10 c-3 -3 -12 -4
-19 -1 -8 3 -5 6 6 6 11 1 17 -2 13 -5z m441 -3 c-6 -16 -100 -91 -108 -86 -4
3 -11 -2 -14 -11 -4 -10 -13 -13 -26 -9 -13 4 -20 2 -18 -5 2 -7 -3 -15 -9
-17 -14 -5 -17 6 -5 22 4 6 38 26 75 45 37 19 75 43 84 53 17 18 27 22 21 8z
m-1172 -98 c-5 -6 -109 61 -125 81 -8 9 18 -5 58 -30 39 -26 70 -49 67 -51z
m-1447 45 c-1 -39 -2 -41 -8 -13 -4 17 -5 36 -3 43 8 23 12 12 11 -30z m824
15 c20 -12 4 -21 -20 -12 -16 6 -29 10 -30 10 -13 -4 -23 1 -23 10 0 10 52 4
73 -8z m-2023 -8 c0 -2 -18 -14 -41 -26 -90 -46 -168 -143 -169 -211 0 -14 -3
-34 -6 -43 -9 -22 -57 -45 -94 -45 -27 0 -30 -3 -25 -20 4 -11 2 -20 -4 -20
-6 0 -10 5 -9 11 2 6 -5 16 -14 22 -14 9 -22 7 -41 -11 -28 -27 -52 -29 -42
-4 20 48 17 59 -17 53 -15 -2 -8 9 17 25 23 15 26 15 51 -5 55 -43 158 -18
152 37 -4 33 -36 42 -55 16 -16 -21 -27 -13 -19 14 4 11 23 27 44 35 20 8 53
30 72 47 91 83 134 111 198 129 1 1 2 -1 2 -4z m134 -45 c15 -15 -10 -60 -33
-60 -11 0 -26 -3 -35 -6 -12 -4 -16 0 -16 15 0 15 -10 26 -31 35 -33 14 -29
22 19 35 28 8 79 -2 96 -19z m1063 -32 c-3 -8 -6 -5 -6 6 -1 11 2 17 5 13 3
-3 4 -12 1 -19z m-1182 -28 c2 -4 -4 -15 -15 -25 -18 -16 -20 -16 -49 1 -19
11 -26 21 -19 25 15 9 77 9 83 -1z m614 -40 l15 -25 -21 19 c-22 18 -73 16
-73 -3 0 -4 -9 -18 -20 -31 l-20 -23 0 23 c0 63 86 92 119 40z m-529 -22 c0
-27 -48 -106 -76 -125 -17 -11 -37 -13 -71 -9 -71 8 -73 9 -67 18 3 4 -2 11
-10 14 -25 10 -32 71 -11 94 19 21 50 26 59 11 3 -5 -1 -14 -9 -21 -20 -17
-19 -43 3 -70 22 -27 61 -29 97 -6 25 16 35 56 14 56 -20 0 -4 44 20 56 30 15
51 8 51 -18z m840 -5 c-11 -17 -11 -17 -6 0 3 10 6 24 7 30 0 9 2 9 5 0 3 -7
0 -20 -6 -30z m37 15 c-3 -8 -6 -5 -6 6 -1 11 2 17 5 13 3 -3 4 -12 1 -19z
m1439 -158 c71 -69 109 -109 84 -90 -52 40 -265 249 -234 229 12 -8 79 -70
150 -139z m-2770 53 c-12 -12 -29 15 -21 34 7 17 8 16 18 -5 5 -12 7 -25 3
-29z m334 26 c0 -11 -27 -12 -34 -1 -2 4 4 9 15 9 10 1 19 -2 19 -8z m707 -65
c-3 -3 -12 -4 -19 -1 -8 3 -5 6 6 6 11 1 17 -2 13 -5z m74 -8 c-18 -22 -76
-46 -108 -45 -22 1 -18 3 15 10 24 4 55 17 70 28 32 24 39 26 23 7z m-1241
-56 c0 -38 31 -57 67 -41 20 9 28 9 37 -2 6 -8 20 -19 31 -25 19 -10 19 -11
-5 -16 -85 -17 -82 -16 -76 -41 5 -20 2 -24 -21 -27 -23 -2 -28 -7 -25 -28 2
-20 -3 -17 -30 22 -18 25 -48 58 -66 73 -18 15 -32 31 -30 36 3 10 99 78 111
78 4 1 7 -12 7 -29z m810 15 c-14 -7 -27 -11 -30 -9 -6 7 22 24 40 23 9 0 5
-6 -10 -14z m-648 -37 c-9 -9 -15 -9 -24 0 -9 9 -7 12 12 12 19 0 21 -3 12
-12z m216 -44 c12 -8 22 -25 22 -36 0 -20 -1 -21 -13 -4 -7 9 -31 20 -54 23
-52 7 -102 -21 -125 -69 -9 -18 -22 -46 -29 -62 l-14 -30 -3 38 c-4 46 32 107
81 136 39 24 104 26 135 4z m-570 -17 c44 -33 89 -92 116 -152 24 -51 43 -155
29 -155 -9 0 -73 106 -73 121 0 5 -4 9 -10 9 -5 0 -10 5 -10 11 0 17 -86 112
-119 132 -17 10 -31 15 -31 11 0 -4 -3 -4 -7 -1 -11 11 29 47 52 47 11 0 35
-11 53 -23z m-98 -51 c0 -3 -4 -8 -10 -11 -5 -3 -10 -1 -10 4 0 6 5 11 10 11
6 0 10 -2 10 -4z m30 -102 c22 -20 40 -41 40 -48 0 -6 9 -22 20 -36 11 -14 20
-34 20 -44 0 -22 -10 -16 -14 7 -4 28 -95 137 -115 137 -6 0 -11 5 -11 10 0
19 20 10 60 -26z m-20 -20 c29 -25 86 -121 77 -130 -2 -2 -18 18 -36 45 -17
28 -45 61 -61 75 -17 13 -30 27 -30 30 0 13 20 5 50 -20z m-47 -81 c14 -21 33
-54 41 -74 15 -35 14 -36 -9 -47 -16 -7 -25 -8 -25 -2 0 6 -5 10 -11 10 -5 0
-7 -6 -3 -12 6 -10 4 -10 -8 0 -18 14 -31 2 -23 -20 6 -15 -25 -41 -102 -86
l-48 -29 -33 56 c-44 75 -60 96 -69 88 -3 -4 3 -17 15 -30 17 -18 19 -26 10
-35 -7 -7 -18 -12 -26 -12 -7 0 -12 -6 -9 -12 2 -7 10 -12 16 -11 6 2 11 -1
11 -6 0 -4 10 -6 23 -4 28 5 57 -34 32 -43 -8 -4 -24 -4 -35 -1 -11 3 -23 1
-26 -5 -3 -5 3 -12 15 -15 17 -4 13 -9 -26 -29 -36 -20 -48 -22 -60 -13 -7 7
-12 18 -9 26 3 7 0 13 -5 13 -11 0 -9 -16 5 -51 5 -12 -5 -24 -41 -44 -26 -16
-119 -73 -207 -127 -87 -55 -174 -102 -192 -105 -19 -3 -34 -9 -34 -13 0 -4
-17 -11 -37 -15 -79 -14 -249 -67 -321 -100 -41 -20 -76 -34 -78 -32 -3 3 358
219 460 275 163 90 195 103 231 96 41 -7 80 13 97 51 15 33 -4 55 -47 55 -33
0 -85 -32 -85 -53 0 -7 -77 -55 -172 -107 -94 -52 -239 -137 -322 -188 -83
-51 -144 -87 -136 -79 8 7 83 72 165 143 83 71 202 180 266 242 l117 114 143
48 c133 45 379 147 474 198 22 12 43 21 46 22 4 0 18 -17 32 -37z m706 -106
c-14 -7 -34 -18 -43 -26 -14 -12 -16 -12 -10 2 3 9 18 20 32 26 38 13 53 12
21 -2z m-949 -97 c0 -5 -7 -10 -15 -10 -8 0 -15 5 -15 10 0 6 7 10 15 10 8 0
15 -4 15 -10z m360 -15 c0 -7 -13 -18 -29 -23 -25 -9 -30 -8 -33 6 -2 11 6 21
22 28 28 13 40 9 40 -11z m268 -31 c-1 -19 -7 -39 -14 -45 -17 -14 -38 -2 -26
14 5 7 13 27 17 45 9 41 25 32 23 -14z m-345 1 c4 -8 2 -17 -3 -20 -6 -4 -10
-4 -10 -1 0 2 -3 11 -6 20 -3 9 -2 16 4 16 5 0 12 -7 15 -15z m297 -9 c0 -3
-4 -8 -10 -11 -5 -3 -10 -1 -10 4 0 6 5 11 10 11 6 0 10 -2 10 -4z m-335 -23
c0 -6 -31 -35 -69 -64 -39 -29 -116 -99 -173 -156 l-103 -103 -86 7 -86 6 43
17 c24 9 53 21 64 27 11 7 39 19 63 27 50 19 197 137 222 179 31 51 125 96
125 60z m-245 -137 c0 -2 -8 -10 -17 -17 -16 -13 -17 -12 -4 4 13 16 21 21 21
13z"/>
<path d="M8265 4770 c-3 -5 -1 -10 4 -10 6 0 11 5 11 10 0 6 -2 10 -4 10 -3 0
-8 -4 -11 -10z"/>
<path d="M11395 4650 c3 -5 8 -10 11 -10 2 0 4 5 4 10 0 6 -5 10 -11 10 -5 0
-7 -4 -4 -10z"/>
<path d="M10440 4158 c41 -45 50 -53 50 -45 0 2 -21 23 -47 47 l-48 45 45 -47z"/>
<path d="M10560 4186 c0 -2 8 -10 18 -17 15 -13 16 -12 3 4 -13 16 -21 21 -21
13z"/>
<path d="M9920 3830 c0 -5 5 -10 10 -10 6 0 10 5 10 10 0 6 -4 10 -10 10 -5 0
-10 -4 -10 -10z"/>
<path d="M6608 3806 c-35 -10 -67 -39 -68 -60 0 -5 22 -6 49 -2 30 4 52 2 56
-4 12 -19 35 -10 41 15 6 24 -18 67 -35 64 -3 -1 -23 -6 -43 -13z"/>
<path d="M6708 3721 c-10 -11 -13 -23 -9 -26 11 -6 34 21 29 35 -2 6 -11 2
-20 -9z"/>
<path d="M8170 3583 c0 -4 5 -15 10 -23 8 -13 10 -13 10 2 0 9 -4 20 -10 23
-5 3 -10 3 -10 -2z"/>
<path d="M8890 3156 c0 -2 7 -9 15 -16 13 -11 14 -10 9 4 -5 14 -24 23 -24 12z"/>
<path d="M9955 3271 c-3 -5 -2 -12 3 -15 5 -3 9 1 9 9 0 17 -3 19 -12 6z"/>
<path d="M9891 3208 c-1 -10 -5 -18 -11 -18 -5 0 -10 -5 -10 -12 0 -8 6 -7 16
4 9 9 14 22 11 30 -4 9 -6 7 -6 -4z"/>
<path d="M9616 3311 c-4 -5 -2 -12 3 -15 5 -4 12 -2 15 3 4 5 2 12 -3 15 -5 4
-12 2 -15 -3z"/>
<path d="M7290 2271 c0 -5 5 -13 10 -16 6 -3 10 -2 10 4 0 5 -4 13 -10 16 -5
3 -10 2 -10 -4z"/>
<path d="M3497 1943 c-4 -3 -7 -11 -7 -17 0 -6 5 -5 12 2 6 6 9 14 7 17 -3 3
-9 2 -12 -2z"/>
<path d="M3030 1639 c0 -5 -4 -7 -10 -4 -5 3 -10 2 -10 -3 0 -20 28 -20 33 -1
3 10 1 19 -4 19 -5 0 -9 -5 -9 -11z"/>
<path d="M3056 1575 c4 -8 10 -15 15 -15 4 0 6 7 3 15 -4 8 -10 15 -15 15 -4
0 -6 -7 -3 -15z"/>
<path d="M2816 1515 c4 -8 7 -15 9 -15 2 0 5 7 9 15 3 9 0 15 -9 15 -9 0 -12
-6 -9 -15z"/>
<path d="M2760 1509 c0 -9 8 -26 18 -37 13 -15 22 -18 37 -11 18 9 18 9 -3 5
-19 -4 -26 2 -37 27 -8 18 -14 25 -15 16z"/>
<path d="M2848 1498 c5 -5 16 -8 23 -6 8 3 3 7 -10 11 -17 4 -21 3 -13 -5z"/>
<path d="M2810 1436 c0 -9 5 -16 10 -16 6 0 10 4 10 9 0 6 -4 13 -10 16 -5 3
-10 -1 -10 -9z"/>
<path d="M10580 2968 c1 -7 7 -31 15 -53 23 -62 28 -134 15 -200 -23 -111 -23
-118 -12 -111 19 11 52 134 52 191 0 101 -10 141 -41 164 -19 14 -29 17 -29 9z"/>
<path d="M7745 2640 c3 -5 8 -10 11 -10 2 0 4 5 4 10 0 6 -5 10 -11 10 -5 0
-7 -4 -4 -10z"/>
<path d="M8183 2523 c-23 -8 -14 -37 20 -65 51 -44 224 -126 311 -148 91 -23
199 -25 271 -6 l50 13 -95 -1 c-72 0 -113 5 -170 23 -72 22 -228 95 -280 130
-56 38 -96 58 -107 54z"/>
<path d="M6270 1996 c0 -2 8 -10 18 -17 15 -13 16 -12 3 4 -13 16 -21 21 -21
13z"/>
<path d="M6406 1823 c8 -30 44 -83 44 -64 0 14 -38 91 -45 91 -3 0 -2 -12 1
-27z"/>
</g>
</svg>
